<svg xmlns="http://www.w3.org/2000/svg" xmlns:xlink="http://www.w3.org/1999/xlink" width="324" zoomAndPan="magnify" viewBox="0 0 242.87999 242.999999" height="324" preserveAspectRatio="xMidYMid meet" version="1.0"><defs><clipPath id="a43a450327"><path d="M 0 0.0585938 L 242.761719 0.0585938 L 242.761719 242.9375 L 0 242.9375 Z M 0 0.0585938 " clip-rule="nonzero"/></clipPath><clipPath id="7e34b0af82"><path d="M 54.722656 0.0585938 L 188.15625 0.0585938 C 218.378906 0.0585938 242.878906 24.558594 242.878906 54.78125 L 242.878906 188.21875 C 242.878906 218.441406 218.378906 242.941406 188.15625 242.941406 L 54.722656 242.941406 C 24.5 242.941406 0 218.441406 0 188.21875 L 0 54.78125 C 0 24.558594 24.5 0.0585938 54.722656 0.0585938 Z M 54.722656 0.0585938 " clip-rule="nonzero"/></clipPath><clipPath id="d7f2eff4a4"><path d="M 0 0.0585938 L 242.761719 0.0585938 L 242.761719 242.9375 L 0 242.9375 Z M 0 0.0585938 " clip-rule="nonzero"/></clipPath><clipPath id="44fc8acd74"><path d="M 54.722656 0.0585938 L 188.15625 0.0585938 C 218.378906 0.0585938 242.878906 24.558594 242.878906 54.78125 L 242.878906 188.21875 C 242.878906 218.441406 218.378906 242.941406 188.15625 242.941406 L 54.722656 242.941406 C 24.5 242.941406 0 218.441406 0 188.21875 L 0 54.78125 C 0 24.558594 24.5 0.0585938 54.722656 0.0585938 Z M 54.722656 0.0585938 " clip-rule="nonzero"/></clipPath><clipPath id="267a92f0e6"><rect x="0" width="243" y="0" height="243"/></clipPath><clipPath id="e07c822ac6"><path d="M 21.121094 48.289062 L 225.773438 48.289062 L 225.773438 194.464844 L 21.121094 194.464844 Z M 21.121094 48.289062 " clip-rule="nonzero"/></clipPath></defs><g clip-path="url(#a43a450327)"><g clip-path="url(#7e34b0af82)"><g transform="matrix(1, 0, 0, 1, -0, -0.000000000000022163)"><g clip-path="url(#267a92f0e6)"><g clip-path="url(#d7f2eff4a4)"><g clip-path="url(#44fc8acd74)"><path fill="#3e647e" d="M 0 0.0585938 L 242.878906 0.0585938 L 242.878906 242.941406 L 0 242.941406 Z M 0 0.0585938 " fill-opacity="1" fill-rule="nonzero"/></g></g></g></g></g></g><g clip-path="url(#e07c822ac6)"><path fill="#e5f8ff" d="M 148.714844 128.601562 L 220.890625 190.535156 C 218.332031 193.09375 214.839844 194.492188 210.878906 194.492188 L 35.792969 194.492188 C 31.832031 194.492188 28.339844 193.09375 25.78125 190.535156 L 97.957031 128.601562 L 123.335938 150.71875 Z M 220.890625 52.464844 C 218.332031 49.902344 214.839844 48.507812 210.878906 48.507812 L 35.792969 48.507812 C 31.832031 48.507812 28.339844 49.902344 25.78125 52.464844 L 123.335938 136.285156 Z M 21.121094 61.3125 L 21.121094 182.617188 L 91.671875 122.546875 Z M 155 122.78125 L 225.550781 182.851562 L 225.550781 61.3125 Z M 155 122.78125 " fill-opacity="1" fill-rule="nonzero"/></g></svg>