<svg xmlns="http://www.w3.org/2000/svg" xmlns:xlink="http://www.w3.org/1999/xlink" width="324" zoomAndPan="magnify" viewBox="0 0 242.87999 242.999999" height="324" preserveAspectRatio="xMidYMid meet" version="1.0"><defs><clipPath id="53f5ddb7b9"><path d="M 0 0.0585938 L 242.761719 0.0585938 L 242.761719 242.9375 L 0 242.9375 Z M 0 0.0585938 " clip-rule="nonzero"/></clipPath><clipPath id="ce5eb2cfba"><path d="M 54.722656 0.0585938 L 188.15625 0.0585938 C 218.378906 0.0585938 242.878906 24.558594 242.878906 54.78125 L 242.878906 188.21875 C 242.878906 218.441406 218.378906 242.941406 188.15625 242.941406 L 54.722656 242.941406 C 24.5 242.941406 0 218.441406 0 188.21875 L 0 54.78125 C 0 24.558594 24.5 0.0585938 54.722656 0.0585938 Z M 54.722656 0.0585938 " clip-rule="nonzero"/></clipPath><clipPath id="858301b704"><path d="M 0 0.0585938 L 242.761719 0.0585938 L 242.761719 242.9375 L 0 242.9375 Z M 0 0.0585938 " clip-rule="nonzero"/></clipPath><clipPath id="1ee5659c99"><path d="M 54.722656 0.0585938 L 188.15625 0.0585938 C 218.378906 0.0585938 242.878906 24.558594 242.878906 54.78125 L 242.878906 188.21875 C 242.878906 218.441406 218.378906 242.941406 188.15625 242.941406 L 54.722656 242.941406 C 24.5 242.941406 0 218.441406 0 188.21875 L 0 54.78125 C 0 24.558594 24.5 0.0585938 54.722656 0.0585938 Z M 54.722656 0.0585938 " clip-rule="nonzero"/></clipPath><clipPath id="7865be9314"><rect x="0" width="243" y="0" height="243"/></clipPath><clipPath id="fb6302596d"><path d="M 20.53125 20.589844 L 222.179688 20.589844 L 222.179688 222.242188 L 20.53125 222.242188 Z M 20.53125 20.589844 " clip-rule="nonzero"/></clipPath></defs><g clip-path="url(#53f5ddb7b9)"><g clip-path="url(#ce5eb2cfba)"><g transform="matrix(1, 0, 0, 1, -0, -0.000000000000022163)"><g clip-path="url(#7865be9314)"><g clip-path="url(#858301b704)"><g clip-path="url(#1ee5659c99)"><path fill="#24082b" d="M 0 0.0585938 L 242.878906 0.0585938 L 242.878906 242.941406 L 0 242.941406 Z M 0 0.0585938 " fill-opacity="1" fill-rule="nonzero"/></g></g></g></g></g></g><g clip-path="url(#fb6302596d)"><path fill="#ffffff" d="M 121.4375 20.589844 C 65.707031 20.589844 20.53125 65.769531 20.53125 121.496094 C 20.53125 177.226562 65.707031 222.40625 121.4375 222.40625 C 177.167969 222.40625 222.34375 177.226562 222.34375 121.496094 C 222.34375 65.769531 177.167969 20.589844 121.4375 20.589844 Z M 121.4375 214.761719 C 69.929688 214.761719 28.171875 173.007812 28.171875 121.496094 C 28.171875 69.988281 69.929688 28.234375 121.4375 28.234375 C 172.945312 28.234375 214.703125 69.988281 214.703125 121.496094 C 214.703125 173.007812 172.945312 214.761719 121.4375 214.761719 Z M 121.4375 214.761719 " fill-opacity="1" fill-rule="nonzero"/></g><path fill="#ffffff" d="M 109.59375 170.960938 C 107.0625 171.203125 105.042969 171.480469 103.011719 171.578125 C 91.5 172.121094 82.972656 167.582031 77.804688 156.996094 C 76.160156 153.628906 74.050781 150.445312 71.855469 147.390625 C 70.539062 145.558594 68.691406 144.085938 66.984375 142.558594 L 66.964844 142.539062 C 65.910156 141.609375 66.375 139.875 67.761719 139.640625 C 69.386719 139.367188 70.902344 139.660156 72.382812 140.039062 C 77.011719 141.214844 79.984375 144.5 82.351562 148.421875 C 87.707031 157.300781 96.925781 161.003906 106.898438 158.359375 C 108.589844 157.910156 109.335938 157.179688 109.703125 155.335938 C 110.132812 153.179688 110.71875 151.058594 111.347656 148.894531 C 111.4375 148.578125 111.5 148.25 111.523438 147.921875 C 111.550781 147.589844 111.542969 147.261719 111.503906 146.929688 C 111.460938 146.601562 111.390625 146.28125 111.28125 145.964844 C 111.175781 145.652344 111.039062 145.351562 110.871094 145.0625 C 110.707031 144.777344 110.511719 144.511719 110.289062 144.265625 C 110.066406 144.015625 109.824219 143.792969 109.558594 143.597656 C 109.289062 143.398438 109.007812 143.230469 108.707031 143.089844 C 108.402344 142.953125 108.09375 142.84375 107.769531 142.769531 L 107.714844 142.753906 C 97.367188 140.28125 88.429688 135.671875 82.671875 126.214844 C 79.59375 121.160156 78.070312 115.59375 78.148438 109.789062 C 78.238281 103.207031 78.820312 96.609375 79.574219 90.066406 C 80.109375 85.457031 82.242188 81.375 85.554688 78.0625 C 86.710938 76.90625 86.808594 75.9375 86.25 74.441406 C 83.96875 68.316406 84.367188 62.179688 86.390625 56.042969 C 86.964844 54.3125 87.773438 54.066406 89.429688 54.585938 C 94.558594 56.199219 98.382812 59.535156 101.742188 63.53125 L 101.777344 63.570312 C 102.199219 64.078125 102.6875 64.511719 103.238281 64.875 C 103.792969 65.234375 104.386719 65.507812 105.019531 65.691406 C 105.652344 65.875 106.300781 65.960938 106.960938 65.949219 C 107.621094 65.9375 108.265625 65.832031 108.890625 65.628906 C 119.53125 62.140625 135.667969 62.09375 145.703125 65.546875 C 146.332031 65.757812 146.980469 65.875 147.644531 65.894531 C 148.3125 65.910156 148.964844 65.828125 149.605469 65.648438 C 150.246094 65.46875 150.84375 65.199219 151.40625 64.835938 C 151.964844 64.472656 152.457031 64.039062 152.882812 63.527344 L 152.914062 63.488281 C 156.28125 59.492188 160.121094 56.183594 165.246094 54.566406 C 166.964844 54.023438 167.695312 54.4375 168.238281 56.105469 C 170.238281 62.246094 170.578125 68.347656 168.417969 74.535156 C 168.113281 75.40625 168.125 76.921875 168.667969 77.472656 C 173.261719 82.132812 175.269531 87.914062 175.78125 94.179688 C 176.273438 100.234375 176.808594 106.394531 176.246094 112.40625 C 174.785156 128.039062 165.277344 137.148438 150.820312 141.671875 C 149.582031 142.0625 148.328125 142.386719 147.042969 142.6875 C 146.710938 142.769531 146.390625 142.878906 146.078125 143.027344 C 145.769531 143.171875 145.476562 143.351562 145.203125 143.558594 C 144.933594 143.765625 144.683594 144 144.460938 144.257812 C 144.234375 144.519531 144.042969 144.796875 143.875 145.097656 C 143.710938 145.398438 143.578125 145.714844 143.480469 146.042969 C 143.382812 146.371094 143.316406 146.703125 143.289062 147.046875 C 143.261719 147.386719 143.265625 147.730469 143.308594 148.070312 C 143.351562 148.410156 143.429688 148.742188 143.542969 149.066406 C 145.511719 154.769531 145.210938 160.867188 145.179688 166.925781 C 145.175781 168.316406 145.167969 169.710938 145.167969 171.105469 C 145.164062 171.679688 145.136719 172.253906 145.078125 172.824219 C 145.019531 173.398438 144.933594 173.964844 144.820312 174.53125 C 144.707031 175.09375 144.566406 175.652344 144.398438 176.203125 C 144.230469 176.75 144.039062 177.292969 143.816406 177.824219 C 143.597656 178.355469 143.347656 178.875 143.078125 179.378906 C 142.804688 179.886719 142.507812 180.378906 142.1875 180.855469 C 141.867188 181.335938 141.527344 181.796875 141.160156 182.238281 C 140.796875 182.683594 140.410156 183.109375 140 183.515625 C 139.59375 183.921875 139.167969 184.308594 138.722656 184.671875 C 138.277344 185.035156 137.816406 185.378906 137.339844 185.699219 C 136.859375 186.015625 136.367188 186.3125 135.859375 186.582031 C 135.351562 186.851562 134.832031 187.097656 134.300781 187.320312 C 133.769531 187.539062 133.226562 187.730469 132.675781 187.898438 C 132.125 188.066406 131.570312 188.203125 131.003906 188.316406 C 130.441406 188.429688 129.871094 188.511719 129.300781 188.570312 C 128.726562 188.625 128.152344 188.652344 127.578125 188.652344 L 127.183594 188.652344 C 126.605469 188.652344 126.03125 188.625 125.457031 188.570312 C 124.886719 188.511719 124.316406 188.425781 123.75 188.316406 C 123.1875 188.203125 122.628906 188.0625 122.078125 187.894531 C 121.527344 187.730469 120.984375 187.535156 120.453125 187.3125 C 119.917969 187.09375 119.398438 186.847656 118.890625 186.578125 C 118.382812 186.304688 117.890625 186.007812 117.410156 185.6875 C 116.933594 185.367188 116.46875 185.027344 116.023438 184.660156 C 115.578125 184.296875 115.152344 183.910156 114.746094 183.5 C 114.339844 183.09375 113.953125 182.667969 113.585938 182.222656 C 113.222656 181.777344 112.878906 181.316406 112.558594 180.835938 C 112.238281 180.359375 111.941406 179.863281 111.671875 179.355469 C 111.398438 178.847656 111.152344 178.328125 110.933594 177.796875 C 110.710938 177.261719 110.519531 176.722656 110.351562 176.171875 C 110.183594 175.621094 110.042969 175.0625 109.933594 174.496094 C 109.820312 173.929688 109.734375 173.363281 109.679688 172.789062 C 109.621094 172.214844 109.59375 171.640625 109.59375 171.066406 Z M 109.59375 170.960938 " fill-opacity="1" fill-rule="nonzero"/></svg>