<svg xmlns="http://www.w3.org/2000/svg" xmlns:xlink="http://www.w3.org/1999/xlink" width="324" zoomAndPan="magnify" viewBox="0 0 242.87999 242.999999" height="324" preserveAspectRatio="xMidYMid meet" version="1.0"><defs><clipPath id="d496e6e5dd"><path d="M 0 0.0585938 L 242.761719 0.0585938 L 242.761719 242.9375 L 0 242.9375 Z M 0 0.0585938 " clip-rule="nonzero"/></clipPath><clipPath id="5507a75ba2"><path d="M 54.722656 0.0585938 L 188.15625 0.0585938 C 218.378906 0.0585938 242.878906 24.558594 242.878906 54.78125 L 242.878906 188.21875 C 242.878906 218.441406 218.378906 242.941406 188.15625 242.941406 L 54.722656 242.941406 C 24.5 242.941406 0 218.441406 0 188.21875 L 0 54.78125 C 0 24.558594 24.5 0.0585938 54.722656 0.0585938 Z M 54.722656 0.0585938 " clip-rule="nonzero"/></clipPath><clipPath id="5b073dfd9e"><path d="M 0 0.0585938 L 242.761719 0.0585938 L 242.761719 242.9375 L 0 242.9375 Z M 0 0.0585938 " clip-rule="nonzero"/></clipPath><clipPath id="2decedf89c"><path d="M 54.722656 0.0585938 L 188.15625 0.0585938 C 218.378906 0.0585938 242.878906 24.558594 242.878906 54.78125 L 242.878906 188.21875 C 242.878906 218.441406 218.378906 242.941406 188.15625 242.941406 L 54.722656 242.941406 C 24.5 242.941406 0 218.441406 0 188.21875 L 0 54.78125 C 0 24.558594 24.5 0.0585938 54.722656 0.0585938 Z M 54.722656 0.0585938 " clip-rule="nonzero"/></clipPath><clipPath id="d6ccf0b47b"><rect x="0" width="243" y="0" height="243"/></clipPath><clipPath id="ae75b2dcc2"><path d="M 32.828125 33 L 209 33 L 209 209 L 32.828125 209 Z M 32.828125 33 " clip-rule="nonzero"/></clipPath></defs><g clip-path="url(#d496e6e5dd)"><g clip-path="url(#5507a75ba2)"><g transform="matrix(1, 0, 0, 1, -0, -0.000000000000022163)"><g clip-path="url(#d6ccf0b47b)"><g clip-path="url(#5b073dfd9e)"><g clip-path="url(#2decedf89c)"><path fill="#1b3e8b" d="M 0 0.0585938 L 242.878906 0.0585938 L 242.878906 242.941406 L 0 242.941406 Z M 0 0.0585938 " fill-opacity="1" fill-rule="nonzero"/></g></g></g></g></g></g><g clip-path="url(#ae75b2dcc2)"><path fill="#ffffff" d="M 182.378906 182.507812 L 156.375 182.507812 L 156.375 141.8125 C 156.375 132.113281 156.199219 119.621094 142.851562 119.621094 C 129.5 119.621094 127.234375 130.195312 127.234375 141.113281 L 127.234375 182.507812 L 101.230469 182.507812 L 101.230469 98.824219 L 126.199219 98.824219 L 126.199219 110.257812 L 126.546875 110.257812 C 131.636719 101.558594 141.105469 96.367188 151.175781 96.738281 C 177.535156 96.738281 182.394531 114.0625 182.394531 136.597656 L 182.394531 182.507812 Z M 71.875 87.386719 C 63.542969 87.386719 56.78125 80.640625 56.78125 72.3125 C 56.78125 63.984375 63.53125 57.230469 71.867188 57.230469 C 80.199219 57.230469 86.960938 63.976562 86.960938 72.304688 C 86.960938 80.632812 80.210938 87.386719 71.875 87.386719 M 84.886719 182.507812 L 58.847656 182.507812 L 58.847656 98.824219 L 84.886719 98.824219 Z M 195.347656 33.09375 L 45.78125 33.09375 C 38.710938 33.019531 32.910156 38.675781 32.828125 45.734375 L 32.828125 195.796875 C 32.910156 202.863281 38.703125 208.519531 45.78125 208.445312 L 195.347656 208.445312 C 202.429688 208.539062 208.25 202.875 208.347656 195.796875 L 208.347656 45.726562 C 208.25 38.648438 202.429688 32.992188 195.347656 33.085938 " fill-opacity="1" fill-rule="nonzero"/></g></svg>