<svg xmlns="http://www.w3.org/2000/svg" xmlns:xlink="http://www.w3.org/1999/xlink" width="324" zoomAndPan="magnify" viewBox="0 0 242.87999 242.999999" height="324" preserveAspectRatio="xMidYMid meet" version="1.0"><defs><clipPath id="8242d2c72d"><path d="M 0 0.0585938 L 242.761719 0.0585938 L 242.761719 242.9375 L 0 242.9375 Z M 0 0.0585938 " clip-rule="nonzero"/></clipPath><clipPath id="65b7a4117a"><path d="M 54.722656 0.0585938 L 188.15625 0.0585938 C 218.378906 0.0585938 242.878906 24.558594 242.878906 54.78125 L 242.878906 188.21875 C 242.878906 218.441406 218.378906 242.941406 188.15625 242.941406 L 54.722656 242.941406 C 24.5 242.941406 0 218.441406 0 188.21875 L 0 54.78125 C 0 24.558594 24.5 0.0585938 54.722656 0.0585938 Z M 54.722656 0.0585938 " clip-rule="nonzero"/></clipPath><clipPath id="1503c3a699"><path d="M 0 0.0585938 L 242.761719 0.0585938 L 242.761719 242.9375 L 0 242.9375 Z M 0 0.0585938 " clip-rule="nonzero"/></clipPath><clipPath id="5be7dbc69b"><path d="M 54.722656 0.0585938 L 188.15625 0.0585938 C 218.378906 0.0585938 242.878906 24.558594 242.878906 54.78125 L 242.878906 188.21875 C 242.878906 218.441406 218.378906 242.941406 188.15625 242.941406 L 54.722656 242.941406 C 24.5 242.941406 0 218.441406 0 188.21875 L 0 54.78125 C 0 24.558594 24.5 0.0585938 54.722656 0.0585938 Z M 54.722656 0.0585938 " clip-rule="nonzero"/></clipPath><radialGradient gradientTransform="matrix(1, 0, 0, 1, -0.000000000000001943, 0.0600145)" gradientUnits="userSpaceOnUse" r="343.484471" cx="0" id="f29b83a5cf" cy="0" fx="0" fy="0"><stop stop-opacity="1" stop-color="rgb(90.861511%, 87.031555%, 60.76355%)" offset="0"/><stop stop-opacity="1" stop-color="rgb(90.625%, 86.978149%, 60.733032%)" offset="0.00390625"/><stop stop-opacity="1" stop-color="rgb(90.388489%, 86.924744%, 60.702515%)" offset="0.0078125"/><stop stop-opacity="1" stop-color="rgb(90.153503%, 86.871338%, 60.671997%)" offset="0.0117188"/><stop stop-opacity="1" stop-color="rgb(89.916992%, 86.817932%, 60.641479%)" offset="0.015625"/><stop stop-opacity="1" stop-color="rgb(89.682007%, 86.763%, 60.610962%)" offset="0.0195312"/><stop stop-opacity="1" stop-color="rgb(89.445496%, 86.709595%, 60.580444%)" offset="0.0234375"/><stop stop-opacity="1" stop-color="rgb(89.208984%, 86.656189%, 60.549927%)" offset="0.0273438"/><stop stop-opacity="1" stop-color="rgb(88.973999%, 86.602783%, 60.519409%)" offset="0.03125"/><stop stop-opacity="1" stop-color="rgb(88.737488%, 86.549377%, 60.488892%)" offset="0.0351562"/><stop stop-opacity="1" stop-color="rgb(88.502502%, 86.495972%, 60.458374%)" offset="0.0390625"/><stop stop-opacity="1" stop-color="rgb(88.265991%, 86.442566%, 60.426331%)" offset="0.0429688"/><stop stop-opacity="1" stop-color="rgb(88.02948%, 86.387634%, 60.395813%)" offset="0.046875"/><stop stop-opacity="1" stop-color="rgb(87.794495%, 86.334229%, 60.365295%)" offset="0.0507812"/><stop stop-opacity="1" stop-color="rgb(87.557983%, 86.280823%, 60.334778%)" offset="0.0546875"/><stop stop-opacity="1" stop-color="rgb(87.322998%, 86.227417%, 60.30426%)" offset="0.0585938"/><stop stop-opacity="1" stop-color="rgb(87.086487%, 86.174011%, 60.273743%)" offset="0.0625"/><stop stop-opacity="1" stop-color="rgb(86.849976%, 86.120605%, 60.243225%)" offset="0.0664062"/><stop stop-opacity="1" stop-color="rgb(86.61499%, 86.065674%, 60.212708%)" offset="0.0703125"/><stop stop-opacity="1" stop-color="rgb(86.378479%, 86.012268%, 60.18219%)" offset="0.0742188"/><stop stop-opacity="1" stop-color="rgb(86.143494%, 85.958862%, 60.151672%)" offset="0.078125"/><stop stop-opacity="1" stop-color="rgb(85.906982%, 85.905457%, 60.121155%)" offset="0.0820312"/><stop stop-opacity="1" stop-color="rgb(85.670471%, 85.852051%, 60.090637%)" offset="0.0859375"/><stop stop-opacity="1" stop-color="rgb(85.435486%, 85.798645%, 60.06012%)" offset="0.0898438"/><stop stop-opacity="1" stop-color="rgb(85.198975%, 85.745239%, 60.029602%)" offset="0.09375"/><stop stop-opacity="1" stop-color="rgb(84.963989%, 85.690308%, 59.997559%)" offset="0.0976562"/><stop stop-opacity="1" stop-color="rgb(84.727478%, 85.636902%, 59.967041%)" offset="0.101562"/><stop stop-opacity="1" stop-color="rgb(84.490967%, 85.583496%, 59.936523%)" offset="0.105469"/><stop stop-opacity="1" stop-color="rgb(84.255981%, 85.53009%, 59.906006%)" offset="0.109375"/><stop stop-opacity="1" stop-color="rgb(84.01947%, 85.476685%, 59.875488%)" offset="0.113281"/><stop stop-opacity="1" stop-color="rgb(83.784485%, 85.423279%, 59.844971%)" offset="0.117188"/><stop stop-opacity="1" stop-color="rgb(83.547974%, 85.369873%, 59.814453%)" offset="0.121094"/><stop stop-opacity="1" stop-color="rgb(83.311462%, 85.314941%, 59.783936%)" offset="0.125"/><stop stop-opacity="1" stop-color="rgb(83.076477%, 85.261536%, 59.753418%)" offset="0.128906"/><stop stop-opacity="1" stop-color="rgb(82.839966%, 85.20813%, 59.7229%)" offset="0.132812"/><stop stop-opacity="1" stop-color="rgb(82.60498%, 85.154724%, 59.692383%)" offset="0.136719"/><stop stop-opacity="1" stop-color="rgb(82.368469%, 85.101318%, 59.661865%)" offset="0.140625"/><stop stop-opacity="1" stop-color="rgb(82.131958%, 85.047913%, 59.631348%)" offset="0.144531"/><stop stop-opacity="1" stop-color="rgb(81.896973%, 84.992981%, 59.60083%)" offset="0.148438"/><stop stop-opacity="1" stop-color="rgb(81.660461%, 84.939575%, 59.568787%)" offset="0.152344"/><stop stop-opacity="1" stop-color="rgb(81.425476%, 84.886169%, 59.538269%)" offset="0.15625"/><stop stop-opacity="1" stop-color="rgb(81.188965%, 84.832764%, 59.507751%)" offset="0.160156"/><stop stop-opacity="1" stop-color="rgb(80.952454%, 84.779358%, 59.477234%)" offset="0.164062"/><stop stop-opacity="1" stop-color="rgb(80.717468%, 84.725952%, 59.446716%)" offset="0.167969"/><stop stop-opacity="1" stop-color="rgb(80.480957%, 84.672546%, 59.416199%)" offset="0.171875"/><stop stop-opacity="1" stop-color="rgb(80.245972%, 84.617615%, 59.385681%)" offset="0.175781"/><stop stop-opacity="1" stop-color="rgb(80.00946%, 84.564209%, 59.355164%)" offset="0.179688"/><stop stop-opacity="1" stop-color="rgb(79.772949%, 84.510803%, 59.324646%)" offset="0.183594"/><stop stop-opacity="1" stop-color="rgb(79.537964%, 84.457397%, 59.294128%)" offset="0.1875"/><stop stop-opacity="1" stop-color="rgb(79.301453%, 84.403992%, 59.263611%)" offset="0.191406"/><stop stop-opacity="1" stop-color="rgb(79.066467%, 84.350586%, 59.233093%)" offset="0.195312"/><stop stop-opacity="1" stop-color="rgb(78.829956%, 84.29718%, 59.202576%)" offset="0.199219"/><stop stop-opacity="1" stop-color="rgb(78.593445%, 84.242249%, 59.172058%)" offset="0.203125"/><stop stop-opacity="1" stop-color="rgb(78.358459%, 84.188843%, 59.140015%)" offset="0.207031"/><stop stop-opacity="1" stop-color="rgb(78.121948%, 84.135437%, 59.109497%)" offset="0.210938"/><stop stop-opacity="1" stop-color="rgb(77.886963%, 84.082031%, 59.078979%)" offset="0.214844"/><stop stop-opacity="1" stop-color="rgb(77.650452%, 84.028625%, 59.048462%)" offset="0.21875"/><stop stop-opacity="1" stop-color="rgb(77.41394%, 83.97522%, 59.017944%)" offset="0.222656"/><stop stop-opacity="1" stop-color="rgb(77.178955%, 83.921814%, 58.987427%)" offset="0.226562"/><stop stop-opacity="1" stop-color="rgb(76.942444%, 83.866882%, 58.956909%)" offset="0.230469"/><stop stop-opacity="1" stop-color="rgb(76.707458%, 83.813477%, 58.926392%)" offset="0.234375"/><stop stop-opacity="1" stop-color="rgb(76.470947%, 83.760071%, 58.895874%)" offset="0.238281"/><stop stop-opacity="1" stop-color="rgb(76.234436%, 83.706665%, 58.865356%)" offset="0.242188"/><stop stop-opacity="1" stop-color="rgb(75.999451%, 83.653259%, 58.834839%)" offset="0.246094"/><stop stop-opacity="1" stop-color="rgb(75.762939%, 83.599854%, 58.804321%)" offset="0.25"/><stop stop-opacity="1" stop-color="rgb(75.527954%, 83.544922%, 58.773804%)" offset="0.253906"/><stop stop-opacity="1" stop-color="rgb(75.291443%, 83.491516%, 58.743286%)" offset="0.257812"/><stop stop-opacity="1" stop-color="rgb(75.054932%, 83.43811%, 58.711243%)" offset="0.261719"/><stop stop-opacity="1" stop-color="rgb(74.819946%, 83.384705%, 58.680725%)" offset="0.265625"/><stop stop-opacity="1" stop-color="rgb(74.583435%, 83.331299%, 58.650208%)" offset="0.269531"/><stop stop-opacity="1" stop-color="rgb(74.34845%, 83.277893%, 58.61969%)" offset="0.273438"/><stop stop-opacity="1" stop-color="rgb(74.111938%, 83.224487%, 58.589172%)" offset="0.277344"/><stop stop-opacity="1" stop-color="rgb(73.875427%, 83.169556%, 58.558655%)" offset="0.28125"/><stop stop-opacity="1" stop-color="rgb(73.640442%, 83.11615%, 58.528137%)" offset="0.285156"/><stop stop-opacity="1" stop-color="rgb(73.403931%, 83.062744%, 58.49762%)" offset="0.289062"/><stop stop-opacity="1" stop-color="rgb(73.168945%, 83.009338%, 58.467102%)" offset="0.292969"/><stop stop-opacity="1" stop-color="rgb(72.932434%, 82.955933%, 58.436584%)" offset="0.296875"/><stop stop-opacity="1" stop-color="rgb(72.695923%, 82.902527%, 58.406067%)" offset="0.300781"/><stop stop-opacity="1" stop-color="rgb(72.460938%, 82.849121%, 58.375549%)" offset="0.304688"/><stop stop-opacity="1" stop-color="rgb(72.224426%, 82.794189%, 58.345032%)" offset="0.308594"/><stop stop-opacity="1" stop-color="rgb(71.989441%, 82.740784%, 58.314514%)" offset="0.3125"/><stop stop-opacity="1" stop-color="rgb(71.75293%, 82.687378%, 58.283997%)" offset="0.316406"/><stop stop-opacity="1" stop-color="rgb(71.516418%, 82.633972%, 58.251953%)" offset="0.320312"/><stop stop-opacity="1" stop-color="rgb(71.281433%, 82.580566%, 58.221436%)" offset="0.324219"/><stop stop-opacity="1" stop-color="rgb(71.044922%, 82.527161%, 58.190918%)" offset="0.328125"/><stop stop-opacity="1" stop-color="rgb(70.809937%, 82.472229%, 58.1604%)" offset="0.332031"/><stop stop-opacity="1" stop-color="rgb(70.573425%, 82.418823%, 58.129883%)" offset="0.335938"/><stop stop-opacity="1" stop-color="rgb(70.336914%, 82.365417%, 58.099365%)" offset="0.339844"/><stop stop-opacity="1" stop-color="rgb(70.101929%, 82.312012%, 58.068848%)" offset="0.34375"/><stop stop-opacity="1" stop-color="rgb(69.865417%, 82.258606%, 58.03833%)" offset="0.347656"/><stop stop-opacity="1" stop-color="rgb(69.630432%, 82.2052%, 58.007812%)" offset="0.351562"/><stop stop-opacity="1" stop-color="rgb(69.393921%, 82.151794%, 57.977295%)" offset="0.355469"/><stop stop-opacity="1" stop-color="rgb(69.158936%, 82.096863%, 57.946777%)" offset="0.359375"/><stop stop-opacity="1" stop-color="rgb(68.922424%, 82.043457%, 57.91626%)" offset="0.363281"/><stop stop-opacity="1" stop-color="rgb(68.685913%, 81.990051%, 57.885742%)" offset="0.367188"/><stop stop-opacity="1" stop-color="rgb(68.450928%, 81.936646%, 57.855225%)" offset="0.371094"/><stop stop-opacity="1" stop-color="rgb(68.214417%, 81.88324%, 57.823181%)" offset="0.375"/><stop stop-opacity="1" stop-color="rgb(67.979431%, 81.829834%, 57.792664%)" offset="0.378906"/><stop stop-opacity="1" stop-color="rgb(67.74292%, 81.776428%, 57.762146%)" offset="0.382812"/><stop stop-opacity="1" stop-color="rgb(67.506409%, 81.721497%, 57.731628%)" offset="0.386719"/><stop stop-opacity="1" stop-color="rgb(67.271423%, 81.668091%, 57.701111%)" offset="0.390625"/><stop stop-opacity="1" stop-color="rgb(67.034912%, 81.614685%, 57.670593%)" offset="0.394531"/><stop stop-opacity="1" stop-color="rgb(66.799927%, 81.561279%, 57.640076%)" offset="0.398438"/><stop stop-opacity="1" stop-color="rgb(66.563416%, 81.507874%, 57.609558%)" offset="0.402344"/><stop stop-opacity="1" stop-color="rgb(66.326904%, 81.454468%, 57.579041%)" offset="0.40625"/><stop stop-opacity="1" stop-color="rgb(66.091919%, 81.401062%, 57.548523%)" offset="0.410156"/><stop stop-opacity="1" stop-color="rgb(65.855408%, 81.34613%, 57.518005%)" offset="0.414062"/><stop stop-opacity="1" stop-color="rgb(65.620422%, 81.292725%, 57.487488%)" offset="0.417969"/><stop stop-opacity="1" stop-color="rgb(65.383911%, 81.239319%, 57.45697%)" offset="0.421875"/><stop stop-opacity="1" stop-color="rgb(65.1474%, 81.185913%, 57.426453%)" offset="0.425781"/><stop stop-opacity="1" stop-color="rgb(64.912415%, 81.132507%, 57.394409%)" offset="0.429688"/><stop stop-opacity="1" stop-color="rgb(64.675903%, 81.079102%, 57.363892%)" offset="0.433594"/><stop stop-opacity="1" stop-color="rgb(64.440918%, 81.02417%, 57.333374%)" offset="0.4375"/><stop stop-opacity="1" stop-color="rgb(64.204407%, 80.970764%, 57.302856%)" offset="0.441406"/><stop stop-opacity="1" stop-color="rgb(63.967896%, 80.917358%, 57.272339%)" offset="0.445312"/><stop stop-opacity="1" stop-color="rgb(63.73291%, 80.863953%, 57.241821%)" offset="0.449219"/><stop stop-opacity="1" stop-color="rgb(63.496399%, 80.810547%, 57.211304%)" offset="0.453125"/><stop stop-opacity="1" stop-color="rgb(63.261414%, 80.757141%, 57.180786%)" offset="0.457031"/><stop stop-opacity="1" stop-color="rgb(63.024902%, 80.703735%, 57.150269%)" offset="0.460938"/><stop stop-opacity="1" stop-color="rgb(62.788391%, 80.648804%, 57.119751%)" offset="0.464844"/><stop stop-opacity="1" stop-color="rgb(62.553406%, 80.595398%, 57.089233%)" offset="0.46875"/><stop stop-opacity="1" stop-color="rgb(62.316895%, 80.541992%, 57.058716%)" offset="0.472656"/><stop stop-opacity="1" stop-color="rgb(62.081909%, 80.488586%, 57.028198%)" offset="0.476562"/><stop stop-opacity="1" stop-color="rgb(61.845398%, 80.435181%, 56.997681%)" offset="0.480469"/><stop stop-opacity="1" stop-color="rgb(61.608887%, 80.381775%, 56.965637%)" offset="0.484375"/><stop stop-opacity="1" stop-color="rgb(61.373901%, 80.328369%, 56.93512%)" offset="0.488281"/><stop stop-opacity="1" stop-color="rgb(61.13739%, 80.273438%, 56.904602%)" offset="0.492188"/><stop stop-opacity="1" stop-color="rgb(60.902405%, 80.220032%, 56.874084%)" offset="0.496094"/><stop stop-opacity="1" stop-color="rgb(60.665894%, 80.166626%, 56.843567%)" offset="0.5"/><stop stop-opacity="1" stop-color="rgb(60.429382%, 80.11322%, 56.813049%)" offset="0.503906"/><stop stop-opacity="1" stop-color="rgb(60.194397%, 80.059814%, 56.782532%)" offset="0.507812"/><stop stop-opacity="1" stop-color="rgb(59.957886%, 80.006409%, 56.752014%)" offset="0.511719"/><stop stop-opacity="1" stop-color="rgb(59.7229%, 79.953003%, 56.721497%)" offset="0.515625"/><stop stop-opacity="1" stop-color="rgb(59.486389%, 79.898071%, 56.690979%)" offset="0.519531"/><stop stop-opacity="1" stop-color="rgb(59.249878%, 79.844666%, 56.660461%)" offset="0.523438"/><stop stop-opacity="1" stop-color="rgb(59.014893%, 79.79126%, 56.629944%)" offset="0.527344"/><stop stop-opacity="1" stop-color="rgb(58.778381%, 79.737854%, 56.599426%)" offset="0.53125"/><stop stop-opacity="1" stop-color="rgb(58.543396%, 79.684448%, 56.568909%)" offset="0.535156"/><stop stop-opacity="1" stop-color="rgb(58.306885%, 79.631042%, 56.536865%)" offset="0.539062"/><stop stop-opacity="1" stop-color="rgb(58.070374%, 79.576111%, 56.506348%)" offset="0.542969"/><stop stop-opacity="1" stop-color="rgb(57.835388%, 79.522705%, 56.47583%)" offset="0.546875"/><stop stop-opacity="1" stop-color="rgb(57.598877%, 79.469299%, 56.445312%)" offset="0.550781"/><stop stop-opacity="1" stop-color="rgb(57.363892%, 79.415894%, 56.414795%)" offset="0.554688"/><stop stop-opacity="1" stop-color="rgb(57.12738%, 79.362488%, 56.384277%)" offset="0.558594"/><stop stop-opacity="1" stop-color="rgb(56.890869%, 79.309082%, 56.35376%)" offset="0.5625"/><stop stop-opacity="1" stop-color="rgb(56.655884%, 79.255676%, 56.323242%)" offset="0.566406"/><stop stop-opacity="1" stop-color="rgb(56.419373%, 79.200745%, 56.292725%)" offset="0.570312"/><stop stop-opacity="1" stop-color="rgb(56.184387%, 79.147339%, 56.262207%)" offset="0.574219"/><stop stop-opacity="1" stop-color="rgb(55.947876%, 79.093933%, 56.231689%)" offset="0.578125"/><stop stop-opacity="1" stop-color="rgb(55.711365%, 79.040527%, 56.201172%)" offset="0.582031"/><stop stop-opacity="1" stop-color="rgb(55.476379%, 78.987122%, 56.170654%)" offset="0.585938"/><stop stop-opacity="1" stop-color="rgb(55.239868%, 78.933716%, 56.140137%)" offset="0.589844"/><stop stop-opacity="1" stop-color="rgb(55.004883%, 78.88031%, 56.109619%)" offset="0.59375"/><stop stop-opacity="1" stop-color="rgb(54.768372%, 78.825378%, 56.077576%)" offset="0.597656"/><stop stop-opacity="1" stop-color="rgb(54.53186%, 78.771973%, 56.047058%)" offset="0.601562"/><stop stop-opacity="1" stop-color="rgb(54.296875%, 78.718567%, 56.016541%)" offset="0.605469"/><stop stop-opacity="1" stop-color="rgb(54.060364%, 78.665161%, 55.986023%)" offset="0.609375"/><stop stop-opacity="1" stop-color="rgb(53.825378%, 78.611755%, 55.955505%)" offset="0.613281"/><stop stop-opacity="1" stop-color="rgb(53.588867%, 78.55835%, 55.924988%)" offset="0.617188"/><stop stop-opacity="1" stop-color="rgb(53.352356%, 78.503418%, 55.89447%)" offset="0.621094"/><stop stop-opacity="1" stop-color="rgb(53.117371%, 78.450012%, 55.863953%)" offset="0.625"/><stop stop-opacity="1" stop-color="rgb(52.880859%, 78.396606%, 55.833435%)" offset="0.628906"/><stop stop-opacity="1" stop-color="rgb(52.645874%, 78.343201%, 55.802917%)" offset="0.632812"/><stop stop-opacity="1" stop-color="rgb(52.409363%, 78.289795%, 55.7724%)" offset="0.636719"/><stop stop-opacity="1" stop-color="rgb(52.172852%, 78.236389%, 55.741882%)" offset="0.640625"/><stop stop-opacity="1" stop-color="rgb(51.937866%, 78.182983%, 55.711365%)" offset="0.644531"/><stop stop-opacity="1" stop-color="rgb(51.701355%, 78.128052%, 55.680847%)" offset="0.648438"/><stop stop-opacity="1" stop-color="rgb(51.46637%, 78.074646%, 55.648804%)" offset="0.652344"/><stop stop-opacity="1" stop-color="rgb(51.229858%, 78.02124%, 55.618286%)" offset="0.65625"/><stop stop-opacity="1" stop-color="rgb(50.993347%, 77.967834%, 55.587769%)" offset="0.660156"/><stop stop-opacity="1" stop-color="rgb(50.758362%, 77.914429%, 55.557251%)" offset="0.664062"/><stop stop-opacity="1" stop-color="rgb(50.521851%, 77.861023%, 55.526733%)" offset="0.667969"/><stop stop-opacity="1" stop-color="rgb(50.286865%, 77.807617%, 55.496216%)" offset="0.671875"/><stop stop-opacity="1" stop-color="rgb(50.050354%, 77.752686%, 55.465698%)" offset="0.675781"/><stop stop-opacity="1" stop-color="rgb(49.813843%, 77.69928%, 55.435181%)" offset="0.679688"/><stop stop-opacity="1" stop-color="rgb(49.578857%, 77.645874%, 55.404663%)" offset="0.683594"/><stop stop-opacity="1" stop-color="rgb(49.342346%, 77.592468%, 55.374146%)" offset="0.6875"/><stop stop-opacity="1" stop-color="rgb(49.107361%, 77.539062%, 55.343628%)" offset="0.691406"/><stop stop-opacity="1" stop-color="rgb(48.87085%, 77.485657%, 55.31311%)" offset="0.695312"/><stop stop-opacity="1" stop-color="rgb(48.634338%, 77.432251%, 55.282593%)" offset="0.699219"/><stop stop-opacity="1" stop-color="rgb(48.399353%, 77.377319%, 55.252075%)" offset="0.703125"/><stop stop-opacity="1" stop-color="rgb(48.162842%, 77.323914%, 55.220032%)" offset="0.707031"/><stop stop-opacity="1" stop-color="rgb(47.927856%, 77.270508%, 55.189514%)" offset="0.710938"/><stop stop-opacity="1" stop-color="rgb(47.691345%, 77.217102%, 55.158997%)" offset="0.714844"/><stop stop-opacity="1" stop-color="rgb(47.454834%, 77.163696%, 55.128479%)" offset="0.71875"/><stop stop-opacity="1" stop-color="rgb(47.219849%, 77.110291%, 55.097961%)" offset="0.722656"/><stop stop-opacity="1" stop-color="rgb(46.983337%, 77.055359%, 55.067444%)" offset="0.726562"/><stop stop-opacity="1" stop-color="rgb(46.748352%, 77.001953%, 55.036926%)" offset="0.730469"/><stop stop-opacity="1" stop-color="rgb(46.511841%, 76.948547%, 55.006409%)" offset="0.734375"/><stop stop-opacity="1" stop-color="rgb(46.27533%, 76.895142%, 54.975891%)" offset="0.738281"/><stop stop-opacity="1" stop-color="rgb(46.040344%, 76.841736%, 54.945374%)" offset="0.742188"/><stop stop-opacity="1" stop-color="rgb(45.803833%, 76.78833%, 54.914856%)" offset="0.746094"/><stop stop-opacity="1" stop-color="rgb(45.568848%, 76.734924%, 54.884338%)" offset="0.75"/><stop stop-opacity="1" stop-color="rgb(45.332336%, 76.679993%, 54.853821%)" offset="0.753906"/><stop stop-opacity="1" stop-color="rgb(45.095825%, 76.626587%, 54.823303%)" offset="0.757812"/><stop stop-opacity="1" stop-color="rgb(44.86084%, 76.573181%, 54.79126%)" offset="0.761719"/><stop stop-opacity="1" stop-color="rgb(44.624329%, 76.519775%, 54.760742%)" offset="0.765625"/><stop stop-opacity="1" stop-color="rgb(44.389343%, 76.46637%, 54.730225%)" offset="0.769531"/><stop stop-opacity="1" stop-color="rgb(44.152832%, 76.412964%, 54.699707%)" offset="0.773438"/><stop stop-opacity="1" stop-color="rgb(43.916321%, 76.359558%, 54.669189%)" offset="0.777344"/><stop stop-opacity="1" stop-color="rgb(43.681335%, 76.304626%, 54.638672%)" offset="0.78125"/><stop stop-opacity="1" stop-color="rgb(43.444824%, 76.251221%, 54.608154%)" offset="0.785156"/><stop stop-opacity="1" stop-color="rgb(43.209839%, 76.197815%, 54.577637%)" offset="0.789062"/><stop stop-opacity="1" stop-color="rgb(42.973328%, 76.144409%, 54.547119%)" offset="0.792969"/><stop stop-opacity="1" stop-color="rgb(42.736816%, 76.091003%, 54.516602%)" offset="0.796875"/><stop stop-opacity="1" stop-color="rgb(42.501831%, 76.037598%, 54.486084%)" offset="0.800781"/><stop stop-opacity="1" stop-color="rgb(42.26532%, 75.982666%, 54.455566%)" offset="0.804688"/><stop stop-opacity="1" stop-color="rgb(42.030334%, 75.92926%, 54.425049%)" offset="0.808594"/><stop stop-opacity="1" stop-color="rgb(41.793823%, 75.875854%, 54.394531%)" offset="0.8125"/><stop stop-opacity="1" stop-color="rgb(41.557312%, 75.822449%, 54.362488%)" offset="0.816406"/><stop stop-opacity="1" stop-color="rgb(41.322327%, 75.769043%, 54.33197%)" offset="0.820312"/><stop stop-opacity="1" stop-color="rgb(41.085815%, 75.715637%, 54.301453%)" offset="0.824219"/><stop stop-opacity="1" stop-color="rgb(40.85083%, 75.662231%, 54.270935%)" offset="0.828125"/><stop stop-opacity="1" stop-color="rgb(40.614319%, 75.6073%, 54.240417%)" offset="0.832031"/><stop stop-opacity="1" stop-color="rgb(40.377808%, 75.553894%, 54.2099%)" offset="0.835938"/><stop stop-opacity="1" stop-color="rgb(40.142822%, 75.500488%, 54.179382%)" offset="0.839844"/><stop stop-opacity="1" stop-color="rgb(39.906311%, 75.447083%, 54.148865%)" offset="0.84375"/><stop stop-opacity="1" stop-color="rgb(39.671326%, 75.393677%, 54.118347%)" offset="0.847656"/><stop stop-opacity="1" stop-color="rgb(39.434814%, 75.340271%, 54.08783%)" offset="0.851562"/><stop stop-opacity="1" stop-color="rgb(39.199829%, 75.286865%, 54.057312%)" offset="0.855469"/><stop stop-opacity="1" stop-color="rgb(38.963318%, 75.231934%, 54.026794%)" offset="0.859375"/><stop stop-opacity="1" stop-color="rgb(38.726807%, 75.178528%, 53.996277%)" offset="0.863281"/><stop stop-opacity="1" stop-color="rgb(38.491821%, 75.125122%, 53.965759%)" offset="0.867188"/><stop stop-opacity="1" stop-color="rgb(38.25531%, 75.071716%, 53.935242%)" offset="0.871094"/><stop stop-opacity="1" stop-color="rgb(38.020325%, 75.018311%, 53.903198%)" offset="0.875"/><stop stop-opacity="1" stop-color="rgb(37.783813%, 74.964905%, 53.872681%)" offset="0.878906"/><stop stop-opacity="1" stop-color="rgb(37.547302%, 74.911499%, 53.842163%)" offset="0.882812"/><stop stop-opacity="1" stop-color="rgb(37.312317%, 74.856567%, 53.811646%)" offset="0.886719"/><stop stop-opacity="1" stop-color="rgb(37.075806%, 74.803162%, 53.781128%)" offset="0.890625"/><stop stop-opacity="1" stop-color="rgb(36.84082%, 74.749756%, 53.75061%)" offset="0.894531"/><stop stop-opacity="1" stop-color="rgb(36.604309%, 74.69635%, 53.720093%)" offset="0.898438"/><stop stop-opacity="1" stop-color="rgb(36.367798%, 74.642944%, 53.689575%)" offset="0.902344"/><stop stop-opacity="1" stop-color="rgb(36.132812%, 74.589539%, 53.659058%)" offset="0.90625"/><stop stop-opacity="1" stop-color="rgb(35.896301%, 74.534607%, 53.62854%)" offset="0.910156"/><stop stop-opacity="1" stop-color="rgb(35.661316%, 74.481201%, 53.598022%)" offset="0.914062"/><stop stop-opacity="1" stop-color="rgb(35.424805%, 74.427795%, 53.567505%)" offset="0.917969"/><stop stop-opacity="1" stop-color="rgb(35.188293%, 74.37439%, 53.536987%)" offset="0.921875"/><stop stop-opacity="1" stop-color="rgb(34.953308%, 74.320984%, 53.50647%)" offset="0.925781"/><stop stop-opacity="1" stop-color="rgb(34.716797%, 74.267578%, 53.474426%)" offset="0.929688"/><stop stop-opacity="1" stop-color="rgb(34.481812%, 74.214172%, 53.443909%)" offset="0.933594"/><stop stop-opacity="1" stop-color="rgb(34.2453%, 74.159241%, 53.413391%)" offset="0.9375"/><stop stop-opacity="1" stop-color="rgb(34.008789%, 74.105835%, 53.382874%)" offset="0.941406"/><stop stop-opacity="1" stop-color="rgb(33.773804%, 74.052429%, 53.352356%)" offset="0.945312"/><stop stop-opacity="1" stop-color="rgb(33.537292%, 73.999023%, 53.321838%)" offset="0.949219"/><stop stop-opacity="1" stop-color="rgb(33.302307%, 73.945618%, 53.291321%)" offset="0.953125"/><stop stop-opacity="1" stop-color="rgb(33.065796%, 73.892212%, 53.260803%)" offset="0.957031"/><stop stop-opacity="1" stop-color="rgb(32.829285%, 73.838806%, 53.230286%)" offset="0.960938"/><stop stop-opacity="1" stop-color="rgb(32.594299%, 73.783875%, 53.199768%)" offset="0.964844"/><stop stop-opacity="1" stop-color="rgb(32.357788%, 73.730469%, 53.16925%)" offset="0.96875"/><stop stop-opacity="1" stop-color="rgb(32.122803%, 73.677063%, 53.138733%)" offset="0.972656"/><stop stop-opacity="1" stop-color="rgb(31.886292%, 73.623657%, 53.108215%)" offset="0.976562"/><stop stop-opacity="1" stop-color="rgb(31.64978%, 73.570251%, 53.077698%)" offset="0.980469"/><stop stop-opacity="1" stop-color="rgb(31.414795%, 73.516846%, 53.045654%)" offset="0.984375"/><stop stop-opacity="1" stop-color="rgb(31.178284%, 73.461914%, 53.015137%)" offset="0.988281"/><stop stop-opacity="1" stop-color="rgb(30.943298%, 73.408508%, 52.984619%)" offset="0.992188"/><stop stop-opacity="1" stop-color="rgb(30.706787%, 73.355103%, 52.954102%)" offset="0.996094"/><stop stop-opacity="1" stop-color="rgb(30.589294%, 73.329163%, 52.938843%)" offset="1"/></radialGradient><clipPath id="291e93e533"><rect x="0" width="243" y="0" height="243"/></clipPath><clipPath id="2e2c2b222d"><path d="M 50.515625 54.429688 L 190.699219 54.429688 L 190.699219 198.359375 L 50.515625 198.359375 Z M 50.515625 54.429688 " clip-rule="nonzero"/></clipPath><clipPath id="a0a3d6fbcb"><path d="M 50.515625 73 L 190.699219 73 L 190.699219 198.359375 L 50.515625 198.359375 Z M 50.515625 73 " clip-rule="nonzero"/></clipPath><clipPath id="13851efd64"><path d="M 50.515625 73 L 84 73 L 84 196 L 50.515625 196 Z M 50.515625 73 " clip-rule="nonzero"/></clipPath><clipPath id="13860cddb5"><path d="M 181 73 L 190.699219 73 L 190.699219 189 L 181 189 Z M 181 73 " clip-rule="nonzero"/></clipPath></defs><g clip-path="url(#8242d2c72d)"><g clip-path="url(#65b7a4117a)"><g transform="matrix(1, 0, 0, 1, -0, -0.000000000000022163)"><g clip-path="url(#291e93e533)"><g clip-path="url(#1503c3a699)"><g clip-path="url(#5be7dbc69b)"><path fill="url(#f29b83a5cf)" d="M 0 0.0585938 L 0 242.941406 L 242.761719 242.941406 L 242.761719 0.0585938 Z M 0 0.0585938 " fill-rule="nonzero"/></g></g></g></g></g></g><g clip-path="url(#2e2c2b222d)"><path fill="#d7f9f4" d="M 120.664062 54.496094 C 118.367188 54.496094 116.078125 54.527344 113.789062 54.585938 C 111.503906 54.648438 109.234375 54.738281 106.980469 54.859375 C 104.726562 54.980469 102.5 55.132812 100.300781 55.3125 C 98.105469 55.492188 95.945312 55.703125 93.820312 55.9375 C 91.699219 56.175781 89.625 56.441406 87.597656 56.734375 C 85.570312 57.027344 83.601562 57.347656 81.691406 57.691406 C 79.78125 58.035156 77.941406 58.40625 76.164062 58.800781 C 74.386719 59.195312 72.6875 59.609375 71.0625 60.050781 C 69.4375 60.488281 67.898438 60.949219 66.441406 61.429688 C 64.980469 61.910156 63.617188 62.40625 62.339844 62.921875 C 61.0625 63.441406 59.882812 63.972656 58.800781 64.519531 C 57.71875 65.066406 56.734375 65.628906 55.855469 66.203125 C 54.976562 66.777344 54.203125 67.359375 53.539062 67.953125 C 52.871094 68.546875 52.3125 69.148438 51.863281 69.757812 C 51.417969 70.367188 51.078125 70.980469 50.855469 71.601562 C 50.628906 72.21875 50.515625 72.835938 50.515625 73.457031 L 50.515625 98.898438 C 50.523438 101.460938 52.375 103.921875 56.070312 106.28125 C 52.375 108.640625 50.523438 111.101562 50.515625 113.664062 L 50.515625 139.105469 C 50.523438 141.667969 52.371094 144.128906 56.070312 146.488281 C 52.375 148.847656 50.523438 151.308594 50.515625 153.875 L 50.515625 179.3125 C 50.515625 179.933594 50.628906 180.550781 50.855469 181.171875 C 51.078125 181.789062 51.417969 182.402344 51.863281 183.011719 C 52.3125 183.621094 52.871094 184.222656 53.539062 184.816406 C 54.203125 185.410156 54.976562 185.996094 55.855469 186.566406 C 56.734375 187.140625 57.714844 187.703125 58.800781 188.25 C 59.882812 188.796875 61.0625 189.332031 62.339844 189.847656 C 63.613281 190.363281 64.980469 190.859375 66.441406 191.339844 C 67.898438 191.820312 69.4375 192.28125 71.0625 192.71875 C 72.6875 193.160156 74.386719 193.574219 76.164062 193.96875 C 77.941406 194.363281 79.78125 194.734375 81.691406 195.078125 C 83.601562 195.421875 85.570312 195.742188 87.597656 196.035156 C 89.625 196.328125 91.699219 196.59375 93.820312 196.832031 C 95.941406 197.070312 98.105469 197.277344 100.300781 197.457031 C 102.5 197.636719 104.726562 197.789062 106.980469 197.910156 C 109.234375 198.03125 111.503906 198.121094 113.789062 198.183594 C 116.078125 198.242188 118.367188 198.273438 120.664062 198.273438 C 122.964844 198.273438 125.253906 198.242188 127.542969 198.183594 C 129.828125 198.121094 132.097656 198.03125 134.351562 197.910156 C 136.605469 197.789062 138.832031 197.636719 141.027344 197.457031 C 143.226562 197.277344 145.386719 197.070312 147.511719 196.832031 C 149.632812 196.59375 151.707031 196.328125 153.734375 196.035156 C 155.757812 195.742188 157.726562 195.421875 159.636719 195.078125 C 161.546875 194.734375 163.390625 194.363281 165.167969 193.96875 C 166.941406 193.574219 168.644531 193.160156 170.269531 192.71875 C 171.890625 192.28125 173.433594 191.820312 174.890625 191.339844 C 176.347656 190.859375 177.714844 190.363281 178.992188 189.847656 C 180.269531 189.332031 181.449219 188.796875 182.53125 188.25 C 183.613281 187.703125 184.59375 187.140625 185.472656 186.566406 C 186.351562 185.996094 187.125 185.410156 187.792969 184.816406 C 188.460938 184.222656 189.019531 183.621094 189.464844 183.011719 C 189.914062 182.402344 190.25 181.789062 190.476562 181.171875 C 190.703125 180.550781 190.8125 179.933594 190.8125 179.3125 L 190.8125 153.878906 C 190.8125 153.875 190.8125 153.875 190.8125 153.871094 C 190.8125 151.308594 188.964844 148.847656 185.273438 146.488281 C 188.96875 144.128906 190.8125 141.667969 190.8125 139.105469 L 190.8125 113.671875 C 190.8125 113.667969 190.8125 113.667969 190.8125 113.664062 C 190.8125 111.101562 188.964844 108.640625 185.273438 106.28125 C 188.96875 103.921875 190.8125 101.460938 190.8125 98.894531 L 190.8125 73.464844 C 190.8125 73.460938 190.8125 73.460938 190.8125 73.457031 C 190.8125 72.835938 190.703125 72.21875 190.476562 71.601562 C 190.25 70.980469 189.914062 70.367188 189.464844 69.757812 C 189.019531 69.148438 188.460938 68.546875 187.792969 67.953125 C 187.128906 67.359375 186.355469 66.777344 185.476562 66.203125 C 184.59375 65.628906 183.613281 65.066406 182.53125 64.519531 C 181.449219 63.972656 180.269531 63.441406 178.992188 62.921875 C 177.714844 62.40625 176.347656 61.910156 174.890625 61.429688 C 173.433594 60.949219 171.894531 60.488281 170.269531 60.050781 C 168.644531 59.609375 166.945312 59.195312 165.167969 58.800781 C 163.390625 58.40625 161.546875 58.035156 159.636719 57.691406 C 157.726562 57.347656 155.761719 57.027344 153.734375 56.734375 C 151.707031 56.441406 149.632812 56.175781 147.511719 55.9375 C 145.386719 55.703125 143.226562 55.492188 141.027344 55.3125 C 138.832031 55.132812 136.605469 54.980469 134.351562 54.859375 C 132.097656 54.738281 129.828125 54.648438 127.542969 54.585938 C 125.253906 54.527344 122.964844 54.496094 120.664062 54.496094 Z M 190.8125 73.464844 C 190.8125 73.871094 190.761719 74.277344 190.664062 74.683594 C 190.761719 74.277344 190.8125 73.871094 190.8125 73.464844 Z M 190.660156 74.707031 C 190.5625 75.109375 190.414062 75.515625 190.21875 75.917969 C 190.414062 75.515625 190.5625 75.109375 190.660156 74.707031 Z M 190.207031 75.941406 C 190.015625 76.339844 189.773438 76.734375 189.484375 77.128906 C 189.773438 76.734375 190.015625 76.339844 190.207031 75.941406 Z M 189.453125 77.175781 C 189.160156 77.566406 188.828125 77.953125 188.445312 78.339844 C 188.828125 77.953125 189.160156 77.566406 189.453125 77.175781 Z M 188.40625 78.382812 C 188.023438 78.765625 187.597656 79.144531 187.128906 79.519531 C 187.597656 79.144531 188.023438 78.765625 188.40625 78.382812 Z M 54.238281 79.554688 C 55.226562 80.339844 56.394531 81.101562 57.75 81.84375 C 56.394531 81.101562 55.226562 80.339844 54.238281 79.554688 Z M 187.0625 79.574219 C 186.585938 79.949219 186.070312 80.324219 185.507812 80.691406 C 186.070312 80.324219 186.585938 79.949219 187.0625 79.574219 Z M 185.445312 80.730469 C 184.878906 81.097656 184.273438 81.460938 183.621094 81.820312 C 184.273438 81.460938 184.878906 81.097656 185.445312 80.730469 Z M 183.542969 81.863281 C 182.898438 82.214844 182.210938 82.5625 181.484375 82.90625 C 182.210938 82.5625 182.898438 82.214844 183.542969 81.863281 Z M 181.351562 82.96875 C 180.628906 83.304688 179.871094 83.632812 179.070312 83.957031 C 179.871094 83.632812 180.628906 83.304688 181.351562 82.96875 Z M 178.921875 84.019531 C 178.121094 84.34375 177.28125 84.660156 176.40625 84.96875 C 177.28125 84.660156 178.121094 84.34375 178.921875 84.019531 Z M 176.234375 85.03125 C 175.351562 85.339844 174.433594 85.640625 173.480469 85.9375 C 174.433594 85.640625 175.351562 85.339844 176.234375 85.03125 Z M 173.328125 85.984375 C 172.371094 86.277344 171.382812 86.5625 170.359375 86.839844 C 171.382812 86.5625 172.371094 86.277344 173.328125 85.984375 Z M 170.171875 86.890625 C 169.148438 87.167969 168.097656 87.433594 167.015625 87.691406 C 168.097656 87.433594 169.148438 87.167969 170.171875 86.890625 Z M 166.804688 87.738281 C 165.71875 87.996094 164.601562 88.246094 163.453125 88.484375 C 164.601562 88.246094 165.71875 87.996094 166.804688 87.738281 Z M 163.273438 88.519531 C 162.125 88.757812 160.953125 88.984375 159.753906 89.203125 C 160.953125 88.984375 162.125 88.757812 163.273438 88.519531 Z M 81.691406 89.226562 C 84.242188 89.683594 86.890625 90.097656 89.640625 90.464844 C 86.890625 90.097656 84.242188 89.683594 81.691406 89.226562 Z M 159.5 89.25 C 158.289062 89.464844 157.058594 89.671875 155.800781 89.871094 C 157.058594 89.671875 158.289062 89.464844 159.5 89.25 Z M 155.664062 89.890625 C 154.386719 90.089844 153.089844 90.277344 151.769531 90.453125 C 153.089844 90.277344 154.386719 90.089844 155.664062 89.890625 Z M 151.582031 90.480469 C 150.269531 90.652344 148.9375 90.816406 147.589844 90.96875 C 148.9375 90.816406 150.269531 90.652344 151.582031 90.480469 Z M 147.386719 90.988281 C 146.046875 91.140625 144.6875 91.277344 143.3125 91.40625 C 144.6875 91.277344 146.046875 91.140625 147.386719 90.988281 Z M 143.0625 91.425781 C 141.675781 91.554688 140.277344 91.667969 138.867188 91.769531 C 140.277344 91.667969 141.675781 91.554688 143.0625 91.425781 Z M 138.75 91.777344 C 137.316406 91.882812 135.871094 91.972656 134.414062 92.050781 C 135.871094 91.972656 137.316406 91.882812 138.75 91.777344 Z M 134.246094 92.0625 C 132.777344 92.140625 131.304688 92.207031 129.820312 92.257812 C 128.308594 92.3125 126.792969 92.351562 125.269531 92.378906 C 126.792969 92.351562 128.308594 92.3125 129.820312 92.257812 C 131.304688 92.207031 132.777344 92.140625 134.246094 92.0625 Z M 107.183594 92.066406 C 110.082031 92.21875 113.007812 92.324219 115.957031 92.375 C 113.007812 92.324219 110.082031 92.21875 107.183594 92.066406 Z M 125.222656 92.378906 C 123.707031 92.40625 122.1875 92.421875 120.664062 92.421875 C 122.1875 92.421875 123.707031 92.40625 125.222656 92.378906 Z M 190.8125 113.671875 C 190.8125 114.078125 190.761719 114.488281 190.664062 114.894531 C 190.761719 114.488281 190.8125 114.078125 190.8125 113.671875 Z M 190.660156 114.914062 C 190.5625 115.316406 190.414062 115.722656 190.21875 116.125 C 190.414062 115.722656 190.5625 115.316406 190.660156 114.914062 Z M 190.207031 116.148438 C 190.011719 116.546875 189.769531 116.945312 189.480469 117.339844 C 189.769531 116.945312 190.011719 116.546875 190.207031 116.148438 Z M 189.453125 117.378906 C 189.164062 117.773438 188.828125 118.160156 188.445312 118.546875 C 188.828125 118.160156 189.164062 117.773438 189.453125 117.378906 Z M 188.40625 118.589844 C 188.023438 118.972656 187.597656 119.355469 187.125 119.730469 C 187.597656 119.355469 188.023438 118.972656 188.40625 118.589844 Z M 187.0625 119.78125 C 186.589844 120.15625 186.074219 120.527344 185.515625 120.894531 C 186.074219 120.527344 186.589844 120.15625 187.0625 119.78125 Z M 185.441406 120.941406 C 184.878906 121.308594 184.273438 121.667969 183.628906 122.023438 C 184.273438 121.667969 184.878906 121.308594 185.441406 120.941406 Z M 183.535156 122.074219 C 182.886719 122.429688 182.199219 122.777344 181.46875 123.121094 C 182.199219 122.777344 182.886719 122.429688 183.535156 122.074219 Z M 181.367188 123.167969 C 180.636719 123.507812 179.867188 123.84375 179.0625 124.171875 C 179.867188 123.84375 180.636719 123.507812 181.367188 123.167969 Z M 178.929688 124.222656 C 178.121094 124.550781 177.277344 124.867188 176.394531 125.179688 C 177.277344 124.867188 178.121094 124.550781 178.929688 124.222656 Z M 176.242188 125.234375 C 175.359375 125.542969 174.445312 125.84375 173.496094 126.140625 C 174.445312 125.84375 175.359375 125.542969 176.242188 125.234375 Z M 173.316406 126.195312 C 172.363281 126.488281 171.378906 126.773438 170.359375 127.046875 C 171.378906 126.773438 172.363281 126.488281 173.316406 126.195312 Z M 170.171875 127.097656 C 169.144531 127.375 168.089844 127.640625 167.003906 127.902344 C 168.089844 127.640625 169.144531 127.375 170.171875 127.097656 Z M 166.828125 127.941406 C 165.734375 128.199219 164.613281 128.449219 163.464844 128.6875 C 164.613281 128.449219 165.734375 128.199219 166.828125 127.941406 Z M 163.253906 128.734375 C 162.097656 128.972656 160.917969 129.199219 159.714844 129.417969 C 160.917969 129.199219 162.097656 128.972656 163.253906 128.734375 Z M 159.546875 129.449219 C 158.328125 129.667969 157.082031 129.875 155.8125 130.074219 C 157.082031 129.875 158.328125 129.667969 159.546875 129.449219 Z M 155.640625 130.101562 C 154.371094 130.300781 153.082031 130.484375 151.769531 130.660156 C 153.082031 130.484375 154.371094 130.300781 155.640625 130.101562 Z M 151.582031 130.6875 C 150.269531 130.859375 148.933594 131.023438 147.582031 131.175781 C 148.933594 131.023438 150.269531 130.859375 151.582031 130.6875 Z M 147.410156 131.195312 C 146.046875 131.347656 144.664062 131.488281 143.265625 131.617188 C 144.664062 131.488281 146.046875 131.347656 147.410156 131.195312 Z M 143.136719 131.628906 C 141.730469 131.757812 140.308594 131.875 138.875 131.976562 C 140.308594 131.875 141.730469 131.757812 143.136719 131.628906 Z M 102.511719 131.980469 C 105.40625 132.191406 108.335938 132.351562 111.308594 132.457031 C 108.335938 132.351562 105.40625 132.191406 102.511719 131.980469 Z M 138.734375 131.988281 C 137.289062 132.09375 135.832031 132.183594 134.363281 132.261719 C 135.832031 132.183594 137.289062 132.09375 138.734375 131.988281 Z M 134.332031 132.265625 C 132.847656 132.34375 131.355469 132.410156 129.859375 132.464844 C 131.355469 132.410156 132.847656 132.34375 134.332031 132.265625 Z M 129.753906 132.46875 C 128.265625 132.519531 126.769531 132.558594 125.269531 132.585938 C 126.769531 132.558594 128.265625 132.519531 129.753906 132.46875 Z M 125.222656 132.589844 C 123.707031 132.613281 122.1875 132.628906 120.664062 132.628906 C 122.1875 132.628906 123.707031 132.613281 125.222656 132.589844 Z M 190.8125 153.878906 C 190.8125 154.285156 190.761719 154.695312 190.664062 155.097656 C 190.761719 154.695312 190.8125 154.285156 190.8125 153.878906 Z M 190.660156 155.121094 C 190.5625 155.527344 190.414062 155.929688 190.21875 156.332031 C 190.414062 155.929688 190.5625 155.527344 190.660156 155.121094 Z M 190.207031 156.355469 C 190.011719 156.753906 189.769531 157.152344 189.480469 157.546875 C 189.769531 157.152344 190.011719 156.753906 190.207031 156.355469 Z M 189.453125 157.589844 C 189.164062 157.980469 188.824219 158.371094 188.441406 158.761719 C 188.824219 158.371094 189.164062 157.980469 189.453125 157.589844 Z M 188.410156 158.792969 C 188.027344 159.179688 187.597656 159.558594 187.125 159.9375 C 187.597656 159.558594 188.027344 159.179688 188.410156 158.792969 Z M 187.0625 159.988281 C 186.589844 160.363281 186.078125 160.734375 185.519531 161.097656 C 186.078125 160.734375 186.589844 160.363281 187.0625 159.988281 Z M 185.4375 161.152344 C 184.875 161.519531 184.269531 161.878906 183.621094 162.234375 C 184.269531 161.878906 184.875 161.519531 185.4375 161.152344 Z M 183.542969 162.277344 C 182.898438 162.628906 182.210938 162.976562 181.484375 163.320312 C 182.210938 162.976562 182.898438 162.628906 183.542969 162.277344 Z M 181.351562 163.382812 C 180.628906 163.71875 179.863281 164.050781 179.0625 164.378906 C 179.863281 164.050781 180.628906 163.71875 181.351562 163.382812 Z M 178.929688 164.433594 C 178.125 164.757812 177.285156 165.074219 176.40625 165.382812 C 177.285156 165.074219 178.125 164.757812 178.929688 164.433594 Z M 176.234375 165.445312 C 175.351562 165.753906 174.433594 166.058594 173.480469 166.351562 C 174.433594 166.058594 175.351562 165.753906 176.234375 165.445312 Z M 173.328125 166.398438 C 172.371094 166.691406 171.382812 166.976562 170.359375 167.253906 C 171.382812 166.976562 172.371094 166.691406 173.328125 166.398438 Z M 170.171875 167.304688 C 169.148438 167.582031 168.097656 167.847656 167.015625 168.105469 C 168.097656 167.847656 169.148438 167.582031 170.171875 167.304688 Z M 166.804688 168.15625 C 165.71875 168.410156 164.601562 168.660156 163.453125 168.898438 C 164.601562 168.660156 165.71875 168.410156 166.804688 168.15625 Z M 163.273438 168.9375 C 162.125 169.171875 160.953125 169.398438 159.753906 169.617188 C 160.953125 169.398438 162.125 169.171875 163.273438 168.9375 Z M 159.496094 169.664062 C 158.304688 169.878906 157.085938 170.082031 155.847656 170.277344 C 157.085938 170.082031 158.304688 169.878906 159.496094 169.664062 Z M 85.589844 170.296875 C 88.246094 170.710938 90.988281 171.074219 93.820312 171.390625 C 90.988281 171.074219 88.246094 170.710938 85.589844 170.296875 Z M 155.609375 170.3125 C 154.347656 170.511719 153.066406 170.695312 151.761719 170.871094 C 153.066406 170.695312 154.347656 170.511719 155.609375 170.3125 Z M 151.605469 170.890625 C 150.285156 171.066406 148.945312 171.230469 147.589844 171.382812 C 148.945312 171.230469 150.285156 171.066406 151.605469 170.890625 Z M 147.386719 171.40625 C 146.042969 171.554688 144.683594 171.691406 143.308594 171.820312 C 144.683594 171.691406 146.042969 171.554688 147.386719 171.40625 Z M 98.117188 171.828125 C 100.933594 172.085938 103.800781 172.296875 106.714844 172.453125 C 103.800781 172.296875 100.933594 172.085938 98.117188 171.828125 Z M 143.085938 171.839844 C 141.691406 171.96875 140.285156 172.082031 138.867188 172.1875 C 140.285156 172.082031 141.691406 171.96875 143.085938 171.839844 Z M 138.75 172.195312 C 137.316406 172.296875 135.867188 172.390625 134.410156 172.46875 C 135.867188 172.390625 137.316406 172.296875 138.75 172.195312 Z M 134.261719 172.476562 C 132.789062 172.554688 131.308594 172.621094 129.820312 172.671875 C 126.78125 172.78125 123.730469 172.835938 120.664062 172.835938 C 116.128906 172.835938 111.632812 172.714844 107.183594 172.480469 C 111.632812 172.714844 116.128906 172.835938 120.664062 172.835938 C 123.730469 172.835938 126.78125 172.78125 129.820312 172.671875 C 131.308594 172.621094 132.789062 172.554688 134.261719 172.476562 Z M 134.261719 172.476562 " fill-opacity="1" fill-rule="nonzero"/></g><g clip-path="url(#a0a3d6fbcb)"><path fill="#0c6b68" d="M 50.515625 73.457031 L 50.515625 98.898438 C 50.515625 99.519531 50.628906 100.136719 50.855469 100.753906 C 51.078125 101.375 51.417969 101.988281 51.863281 102.597656 C 52.3125 103.207031 52.871094 103.808594 53.539062 104.402344 C 54.203125 104.996094 54.976562 105.578125 55.855469 106.152344 C 56.734375 106.726562 57.714844 107.289062 58.800781 107.835938 C 59.882812 108.382812 61.0625 108.914062 62.339844 109.433594 C 63.613281 109.949219 64.980469 110.445312 66.441406 110.925781 C 67.898438 111.40625 69.4375 111.867188 71.0625 112.304688 C 72.6875 112.746094 74.386719 113.160156 76.164062 113.554688 C 77.941406 113.949219 79.78125 114.320312 81.691406 114.664062 C 83.601562 115.007812 85.570312 115.328125 87.597656 115.621094 C 89.625 115.914062 91.699219 116.179688 93.820312 116.414062 C 95.941406 116.652344 98.105469 116.863281 100.300781 117.042969 C 102.5 117.222656 104.726562 117.375 106.980469 117.496094 C 109.234375 117.617188 111.503906 117.707031 113.789062 117.769531 C 116.078125 117.828125 118.367188 117.859375 120.664062 117.859375 C 122.964844 117.859375 125.253906 117.828125 127.542969 117.769531 C 129.828125 117.707031 132.097656 117.617188 134.351562 117.496094 C 136.605469 117.375 138.832031 117.222656 141.027344 117.042969 C 143.226562 116.863281 145.386719 116.652344 147.511719 116.414062 C 149.632812 116.179688 151.707031 115.914062 153.734375 115.621094 C 155.757812 115.328125 157.726562 115.007812 159.636719 114.664062 C 161.546875 114.320312 163.390625 113.949219 165.167969 113.554688 C 166.941406 113.160156 168.644531 112.746094 170.269531 112.304688 C 171.890625 111.867188 173.433594 111.40625 174.890625 110.925781 C 176.347656 110.445312 177.714844 109.949219 178.992188 109.433594 C 180.269531 108.914062 181.449219 108.382812 182.53125 107.835938 C 183.613281 107.289062 184.59375 106.726562 185.472656 106.152344 C 186.351562 105.578125 187.125 104.996094 187.792969 104.402344 C 188.460938 103.808594 189.019531 103.207031 189.464844 102.597656 C 189.914062 101.988281 190.25 101.375 190.476562 100.753906 C 190.703125 100.136719 190.8125 99.519531 190.8125 98.898438 L 190.8125 73.457031 C 190.8125 74.078125 190.703125 74.699219 190.476562 75.316406 C 190.25 75.933594 189.914062 76.546875 189.464844 77.15625 C 189.019531 77.765625 188.460938 78.367188 187.792969 78.964844 C 187.125 79.558594 186.351562 80.140625 185.472656 80.714844 C 184.59375 81.289062 183.613281 81.851562 182.53125 82.398438 C 181.449219 82.945312 180.269531 83.476562 178.992188 83.992188 C 177.714844 84.511719 176.347656 85.007812 174.890625 85.488281 C 173.433594 85.96875 171.890625 86.429688 170.269531 86.867188 C 168.644531 87.304688 166.941406 87.722656 165.167969 88.117188 C 163.390625 88.511719 161.546875 88.878906 159.636719 89.226562 C 157.726562 89.570312 155.757812 89.890625 153.734375 90.183594 C 151.707031 90.476562 149.632812 90.738281 147.511719 90.976562 C 145.386719 91.214844 143.226562 91.425781 141.027344 91.605469 C 138.832031 91.785156 136.605469 91.933594 134.351562 92.058594 C 132.097656 92.179688 129.828125 92.269531 127.542969 92.328125 C 125.253906 92.390625 122.964844 92.421875 120.664062 92.421875 C 118.367188 92.421875 116.078125 92.390625 113.789062 92.328125 C 111.503906 92.269531 109.234375 92.179688 106.980469 92.058594 C 104.726562 91.9375 102.5 91.785156 100.300781 91.605469 C 98.105469 91.425781 95.945312 91.214844 93.820312 90.976562 C 91.699219 90.738281 89.625 90.476562 87.597656 90.183594 C 85.570312 89.890625 83.601562 89.570312 81.691406 89.226562 C 79.78125 88.878906 77.941406 88.511719 76.164062 88.117188 C 74.386719 87.722656 72.6875 87.304688 71.0625 86.867188 C 69.4375 86.429688 67.898438 85.96875 66.441406 85.488281 C 64.980469 85.007812 63.617188 84.511719 62.339844 83.992188 C 61.0625 83.476562 59.882812 82.945312 58.800781 82.398438 C 57.71875 81.851562 56.734375 81.289062 55.855469 80.714844 C 54.976562 80.140625 54.203125 79.558594 53.539062 78.964844 C 52.871094 78.367188 52.3125 77.765625 51.863281 77.15625 C 51.417969 76.546875 51.078125 75.933594 50.855469 75.316406 C 50.628906 74.699219 50.515625 74.078125 50.515625 73.457031 Z M 50.515625 113.664062 L 50.515625 139.105469 C 50.515625 139.726562 50.628906 140.34375 50.855469 140.960938 C 51.078125 141.582031 51.417969 142.195312 51.863281 142.804688 C 52.3125 143.414062 52.871094 144.015625 53.539062 144.609375 C 54.203125 145.203125 54.976562 145.785156 55.855469 146.359375 C 56.734375 146.933594 57.714844 147.496094 58.800781 148.042969 C 59.882812 148.589844 61.0625 149.121094 62.339844 149.640625 C 63.613281 150.15625 64.980469 150.652344 66.441406 151.132812 C 67.898438 151.613281 69.4375 152.074219 71.0625 152.511719 C 72.6875 152.953125 74.386719 153.367188 76.164062 153.761719 C 77.941406 154.15625 79.78125 154.527344 81.691406 154.871094 C 83.601562 155.214844 85.570312 155.535156 87.597656 155.828125 C 89.625 156.121094 91.699219 156.386719 93.820312 156.625 C 95.941406 156.859375 98.105469 157.070312 100.300781 157.25 C 102.5 157.429688 104.726562 157.582031 106.980469 157.703125 C 109.234375 157.824219 111.503906 157.914062 113.789062 157.976562 C 116.078125 158.035156 118.367188 158.066406 120.664062 158.066406 C 122.964844 158.066406 125.253906 158.035156 127.542969 157.976562 C 129.828125 157.914062 132.097656 157.824219 134.351562 157.703125 C 136.605469 157.582031 138.832031 157.429688 141.027344 157.25 C 143.226562 157.070312 145.386719 156.859375 147.511719 156.625 C 149.632812 156.386719 151.707031 156.121094 153.734375 155.828125 C 155.757812 155.535156 157.726562 155.214844 159.636719 154.871094 C 161.546875 154.527344 163.390625 154.15625 165.167969 153.761719 C 166.941406 153.367188 168.644531 152.953125 170.269531 152.511719 C 171.890625 152.074219 173.433594 151.613281 174.890625 151.132812 C 176.347656 150.652344 177.714844 150.15625 178.992188 149.640625 C 180.269531 149.121094 181.449219 148.589844 182.53125 148.042969 C 183.613281 147.496094 184.59375 146.933594 185.472656 146.359375 C 186.351562 145.785156 187.125 145.203125 187.792969 144.609375 C 188.460938 144.015625 189.019531 143.414062 189.464844 142.804688 C 189.914062 142.195312 190.25 141.582031 190.476562 140.960938 C 190.703125 140.34375 190.8125 139.726562 190.8125 139.105469 L 190.8125 113.664062 C 190.8125 114.285156 190.703125 114.90625 190.476562 115.523438 C 190.25 116.140625 189.914062 116.753906 189.464844 117.363281 C 189.019531 117.972656 188.460938 118.574219 187.792969 119.171875 C 187.125 119.765625 186.351562 120.347656 185.472656 120.921875 C 184.59375 121.496094 183.613281 122.058594 182.53125 122.605469 C 181.449219 123.152344 180.269531 123.683594 178.992188 124.199219 C 177.714844 124.71875 176.347656 125.214844 174.890625 125.695312 C 173.433594 126.175781 171.890625 126.636719 170.269531 127.074219 C 168.644531 127.511719 166.941406 127.929688 165.167969 128.324219 C 163.390625 128.71875 161.546875 129.085938 159.636719 129.433594 C 157.726562 129.777344 155.757812 130.097656 153.734375 130.390625 C 151.707031 130.683594 149.632812 130.945312 147.511719 131.183594 C 145.386719 131.421875 143.226562 131.632812 141.027344 131.8125 C 138.832031 131.992188 136.605469 132.144531 134.351562 132.265625 C 132.097656 132.386719 129.828125 132.476562 127.542969 132.535156 C 125.253906 132.597656 122.964844 132.628906 120.664062 132.628906 C 118.367188 132.628906 116.078125 132.597656 113.789062 132.535156 C 111.503906 132.476562 109.234375 132.386719 106.980469 132.265625 C 104.726562 132.144531 102.5 131.992188 100.300781 131.8125 C 98.105469 131.632812 95.945312 131.421875 93.820312 131.183594 C 91.699219 130.945312 89.625 130.683594 87.597656 130.390625 C 85.570312 130.097656 83.601562 129.777344 81.691406 129.433594 C 79.78125 129.085938 77.941406 128.71875 76.164062 128.324219 C 74.386719 127.929688 72.6875 127.511719 71.0625 127.074219 C 69.4375 126.636719 67.898438 126.175781 66.441406 125.695312 C 64.980469 125.214844 63.617188 124.71875 62.339844 124.199219 C 61.0625 123.683594 59.882812 123.152344 58.800781 122.605469 C 57.71875 122.058594 56.734375 121.496094 55.855469 120.921875 C 54.976562 120.347656 54.203125 119.765625 53.539062 119.171875 C 52.871094 118.574219 52.3125 117.972656 51.863281 117.363281 C 51.417969 116.753906 51.078125 116.140625 50.855469 115.523438 C 50.628906 114.90625 50.515625 114.285156 50.515625 113.664062 Z M 50.515625 153.875 L 50.515625 179.3125 C 50.515625 179.933594 50.628906 180.550781 50.855469 181.171875 C 51.078125 181.789062 51.417969 182.402344 51.863281 183.011719 C 52.3125 183.621094 52.871094 184.222656 53.539062 184.816406 C 54.203125 185.410156 54.976562 185.996094 55.855469 186.566406 C 56.734375 187.140625 57.714844 187.703125 58.800781 188.25 C 59.882812 188.796875 61.0625 189.332031 62.339844 189.847656 C 63.613281 190.363281 64.980469 190.859375 66.441406 191.339844 C 67.898438 191.820312 69.4375 192.28125 71.0625 192.71875 C 72.6875 193.160156 74.386719 193.574219 76.164062 193.96875 C 77.941406 194.363281 79.78125 194.734375 81.691406 195.078125 C 83.601562 195.421875 85.570312 195.742188 87.597656 196.035156 C 89.625 196.328125 91.699219 196.59375 93.820312 196.832031 C 95.941406 197.066406 98.105469 197.277344 100.300781 197.457031 C 102.5 197.636719 104.726562 197.789062 106.980469 197.910156 C 109.234375 198.03125 111.503906 198.121094 113.789062 198.183594 C 116.078125 198.242188 118.367188 198.273438 120.664062 198.273438 C 122.964844 198.273438 125.253906 198.242188 127.542969 198.183594 C 129.828125 198.121094 132.097656 198.03125 134.351562 197.910156 C 136.605469 197.789062 138.832031 197.636719 141.027344 197.457031 C 143.226562 197.277344 145.386719 197.066406 147.511719 196.832031 C 149.632812 196.59375 151.707031 196.328125 153.734375 196.035156 C 155.757812 195.742188 157.726562 195.421875 159.636719 195.078125 C 161.546875 194.734375 163.390625 194.363281 165.167969 193.96875 C 166.941406 193.574219 168.644531 193.160156 170.269531 192.71875 C 171.890625 192.28125 173.433594 191.820312 174.890625 191.339844 C 176.347656 190.859375 177.714844 190.363281 178.992188 189.847656 C 180.269531 189.332031 181.449219 188.796875 182.53125 188.25 C 183.613281 187.703125 184.59375 187.140625 185.472656 186.566406 C 186.351562 185.996094 187.125 185.410156 187.792969 184.816406 C 188.460938 184.222656 189.019531 183.621094 189.464844 183.011719 C 189.914062 182.402344 190.25 181.789062 190.476562 181.171875 C 190.703125 180.550781 190.8125 179.933594 190.8125 179.3125 L 190.8125 153.875 C 190.8125 154.496094 190.703125 155.113281 190.476562 155.730469 C 190.25 156.351562 189.914062 156.964844 189.464844 157.574219 C 189.019531 158.183594 188.460938 158.785156 187.792969 159.378906 C 187.125 159.972656 186.351562 160.554688 185.472656 161.128906 C 184.59375 161.703125 183.613281 162.265625 182.53125 162.8125 C 181.449219 163.359375 180.269531 163.890625 178.992188 164.410156 C 177.714844 164.925781 176.347656 165.421875 174.890625 165.902344 C 173.433594 166.382812 171.890625 166.84375 170.269531 167.28125 C 168.644531 167.722656 166.941406 168.136719 165.167969 168.53125 C 163.390625 168.925781 161.546875 169.296875 159.636719 169.640625 C 157.726562 169.984375 155.757812 170.304688 153.734375 170.597656 C 151.707031 170.890625 149.632812 171.15625 147.511719 171.390625 C 145.386719 171.628906 143.226562 171.839844 141.027344 172.019531 C 138.832031 172.199219 136.605469 172.351562 134.351562 172.472656 C 132.097656 172.59375 129.828125 172.683594 127.542969 172.746094 C 125.253906 172.804688 122.964844 172.835938 120.664062 172.835938 C 118.367188 172.835938 116.078125 172.804688 113.789062 172.746094 C 111.503906 172.683594 109.234375 172.59375 106.980469 172.472656 C 104.726562 172.351562 102.5 172.199219 100.300781 172.019531 C 98.105469 171.839844 95.945312 171.628906 93.820312 171.390625 C 91.699219 171.15625 89.625 170.890625 87.597656 170.597656 C 85.570312 170.304688 83.601562 169.984375 81.691406 169.640625 C 79.78125 169.296875 77.941406 168.925781 76.164062 168.53125 C 74.386719 168.136719 72.6875 167.722656 71.0625 167.28125 C 69.4375 166.84375 67.898438 166.382812 66.441406 165.902344 C 64.980469 165.421875 63.617188 164.925781 62.339844 164.410156 C 61.0625 163.890625 59.882812 163.359375 58.800781 162.8125 C 57.71875 162.265625 56.734375 161.703125 55.855469 161.128906 C 54.976562 160.554688 54.203125 159.972656 53.539062 159.378906 C 52.871094 158.785156 52.3125 158.183594 51.863281 157.574219 C 51.417969 156.964844 51.078125 156.351562 50.855469 155.730469 C 50.628906 155.113281 50.515625 154.496094 50.515625 153.875 Z M 50.515625 153.875 " fill-opacity="1" fill-rule="nonzero"/></g><g clip-path="url(#13851efd64)"><path fill="#0d9c90" d="M 50.515625 73.457031 L 50.515625 98.898438 C 50.519531 99.699219 50.710938 100.496094 51.089844 101.292969 C 51.46875 102.089844 52.03125 102.875 52.777344 103.648438 C 53.523438 104.425781 54.449219 105.1875 55.554688 105.929688 C 56.65625 106.675781 57.929688 107.398438 59.375 108.097656 C 60.816406 108.800781 62.417969 109.472656 64.175781 110.117188 C 65.9375 110.765625 67.839844 111.378906 69.886719 111.957031 C 71.933594 112.539062 74.105469 113.082031 76.410156 113.589844 C 78.710938 114.09375 81.121094 114.558594 83.640625 114.980469 L 83.640625 89.542969 C 81.121094 89.121094 78.710938 88.65625 76.410156 88.148438 C 74.105469 87.644531 71.933594 87.101562 69.886719 86.519531 C 67.839844 85.9375 65.9375 85.328125 64.175781 84.679688 C 62.417969 84.035156 60.816406 83.359375 59.375 82.660156 C 57.929688 81.960938 56.65625 81.238281 55.554688 80.492188 C 54.449219 79.75 53.523438 78.988281 52.777344 78.210938 C 52.03125 77.4375 51.46875 76.648438 51.089844 75.855469 C 50.710938 75.058594 50.519531 74.261719 50.515625 73.457031 Z M 50.515625 113.664062 L 50.515625 139.105469 C 50.519531 139.90625 50.710938 140.703125 51.089844 141.5 C 51.46875 142.296875 52.03125 143.082031 52.777344 143.859375 C 53.523438 144.632812 54.449219 145.394531 55.554688 146.136719 C 56.65625 146.882812 57.929688 147.605469 59.375 148.304688 C 60.816406 149.007812 62.417969 149.679688 64.175781 150.324219 C 65.9375 150.972656 67.839844 151.585938 69.886719 152.164062 C 71.933594 152.746094 74.105469 153.289062 76.410156 153.796875 C 78.710938 154.300781 81.121094 154.765625 83.640625 155.1875 L 83.640625 129.75 C 81.121094 129.328125 78.710938 128.863281 76.410156 128.355469 C 74.105469 127.851562 71.933594 127.308594 69.886719 126.726562 C 67.839844 126.144531 65.9375 125.535156 64.175781 124.886719 C 62.417969 124.242188 60.816406 123.570312 59.375 122.867188 C 57.929688 122.167969 56.65625 121.445312 55.554688 120.699219 C 54.449219 119.957031 53.523438 119.195312 52.777344 118.417969 C 52.03125 117.644531 51.46875 116.855469 51.089844 116.0625 C 50.710938 115.265625 50.519531 114.46875 50.515625 113.664062 Z M 50.515625 153.875 L 50.515625 179.3125 C 50.519531 180.113281 50.710938 180.914062 51.089844 181.707031 C 51.46875 182.503906 52.03125 183.289062 52.777344 184.066406 C 53.523438 184.839844 54.449219 185.601562 55.554688 186.347656 C 56.65625 187.089844 57.929688 187.8125 59.375 188.515625 C 60.816406 189.214844 62.417969 189.886719 64.175781 190.535156 C 65.9375 191.179688 67.839844 191.792969 69.886719 192.375 C 71.933594 192.953125 74.105469 193.496094 76.410156 194.003906 C 78.710938 194.507812 81.121094 194.972656 83.640625 195.398438 L 83.640625 169.957031 C 81.121094 169.535156 78.710938 169.070312 76.410156 168.566406 C 74.105469 168.058594 71.933594 167.515625 69.886719 166.933594 C 67.839844 166.355469 65.9375 165.742188 64.175781 165.09375 C 62.417969 164.449219 60.816406 163.777344 59.375 163.074219 C 57.929688 162.375 56.65625 161.652344 55.554688 160.90625 C 54.449219 160.164062 53.523438 159.402344 52.777344 158.625 C 52.03125 157.851562 51.46875 157.066406 51.089844 156.269531 C 50.710938 155.472656 50.519531 154.675781 50.515625 153.875 Z M 50.515625 153.875 " fill-opacity="1" fill-rule="nonzero"/></g><g clip-path="url(#13860cddb5)"><path fill="#0c6b68" d="M 190.8125 73.457031 C 190.800781 75.152344 189.960938 76.816406 188.296875 78.449219 C 186.632812 80.082031 184.203125 81.625 181.007812 83.082031 L 181.007812 108.519531 C 184.203125 107.066406 186.632812 105.519531 188.296875 103.886719 C 189.960938 102.253906 190.800781 100.589844 190.8125 98.898438 Z M 190.8125 113.664062 C 190.800781 115.359375 189.960938 117.023438 188.296875 118.65625 C 186.632812 120.289062 184.203125 121.832031 181.007812 123.289062 L 181.007812 148.730469 C 184.203125 147.273438 186.632812 145.726562 188.296875 144.09375 C 189.960938 142.460938 190.800781 140.796875 190.8125 139.105469 Z M 190.8125 153.875 C 190.800781 155.566406 189.960938 157.230469 188.296875 158.863281 C 186.632812 160.496094 184.203125 162.039062 181.007812 163.496094 L 181.007812 188.9375 C 184.203125 187.480469 186.632812 185.933594 188.296875 184.300781 C 189.960938 182.667969 190.800781 181.003906 190.8125 179.3125 Z M 190.8125 153.875 " fill-opacity="1" fill-rule="nonzero"/></g></svg>