<svg xmlns="http://www.w3.org/2000/svg" xmlns:xlink="http://www.w3.org/1999/xlink" width="324" zoomAndPan="magnify" viewBox="0 0 242.87999 242.999999" height="324" preserveAspectRatio="xMidYMid meet" version="1.0"><defs><clipPath id="433cbbe11f"><path d="M 0 0.0585938 L 242.761719 0.0585938 L 242.761719 242.9375 L 0 242.9375 Z M 0 0.0585938 " clip-rule="nonzero"/></clipPath><clipPath id="5382200f89"><path d="M 54.722656 0.0585938 L 188.15625 0.0585938 C 218.378906 0.0585938 242.878906 24.558594 242.878906 54.78125 L 242.878906 188.21875 C 242.878906 218.441406 218.378906 242.941406 188.15625 242.941406 L 54.722656 242.941406 C 24.5 242.941406 0 218.441406 0 188.21875 L 0 54.78125 C 0 24.558594 24.5 0.0585938 54.722656 0.0585938 Z M 54.722656 0.0585938 " clip-rule="nonzero"/></clipPath><clipPath id="7dbc94be41"><path d="M 0 0.0585938 L 242.761719 0.0585938 L 242.761719 242.9375 L 0 242.9375 Z M 0 0.0585938 " clip-rule="nonzero"/></clipPath><clipPath id="cb992eaada"><path d="M 54.722656 0.0585938 L 188.15625 0.0585938 C 218.378906 0.0585938 242.878906 24.558594 242.878906 54.78125 L 242.878906 188.21875 C 242.878906 218.441406 218.378906 242.941406 188.15625 242.941406 L 54.722656 242.941406 C 24.5 242.941406 0 218.441406 0 188.21875 L 0 54.78125 C 0 24.558594 24.5 0.0585938 54.722656 0.0585938 Z M 54.722656 0.0585938 " clip-rule="nonzero"/></clipPath><radialGradient gradientTransform="matrix(1, 0, 0, 1, -0.000000000000001943, 0.0600145)" gradientUnits="userSpaceOnUse" r="171.741761" cx="121.439989" id="afdbe9b655" cy="121.439989" fx="121.439989" fy="121.439989"><stop stop-opacity="1" stop-color="rgb(5.018616%, 61.080933%, 56.640625%)" offset="0"/><stop stop-opacity="1" stop-color="rgb(4.86908%, 60.896301%, 56.962585%)" offset="0.03125"/><stop stop-opacity="1" stop-color="rgb(4.730225%, 60.725403%, 57.261658%)" offset="0.0585938"/><stop stop-opacity="1" stop-color="rgb(4.59137%, 60.552979%, 57.562256%)" offset="0.0859375"/><stop stop-opacity="1" stop-color="rgb(4.450989%, 60.38208%, 57.862854%)" offset="0.113281"/><stop stop-opacity="1" stop-color="rgb(4.321289%, 60.221863%, 58.14209%)" offset="0.140625"/><stop stop-opacity="1" stop-color="rgb(4.202271%, 60.075378%, 58.398438%)" offset="0.164062"/><stop stop-opacity="1" stop-color="rgb(4.083252%, 59.927368%, 58.656311%)" offset="0.1875"/><stop stop-opacity="1" stop-color="rgb(3.962708%, 59.780884%, 58.914185%)" offset="0.210938"/><stop stop-opacity="1" stop-color="rgb(3.843689%, 59.632874%, 59.170532%)" offset="0.234375"/><stop stop-opacity="1" stop-color="rgb(3.733826%, 59.498596%, 59.407043%)" offset="0.257812"/><stop stop-opacity="1" stop-color="rgb(3.634644%, 59.376526%, 59.620667%)" offset="0.277344"/><stop stop-opacity="1" stop-color="rgb(3.535461%, 59.25293%, 59.835815%)" offset="0.296875"/><stop stop-opacity="1" stop-color="rgb(3.434753%, 59.130859%, 60.049438%)" offset="0.316406"/><stop stop-opacity="1" stop-color="rgb(3.335571%, 59.007263%, 60.264587%)" offset="0.335938"/><stop stop-opacity="1" stop-color="rgb(3.236389%, 58.885193%, 60.479736%)" offset="0.355469"/><stop stop-opacity="1" stop-color="rgb(3.135681%, 58.763123%, 60.693359%)" offset="0.375"/><stop stop-opacity="1" stop-color="rgb(2.996826%, 58.590698%, 60.993958%)" offset="0.394531"/><stop stop-opacity="1" stop-color="rgb(2.818298%, 58.369446%, 61.380005%)" offset="0.429688"/><stop stop-opacity="1" stop-color="rgb(2.648926%, 58.161926%, 61.74469%)" offset="0.464844"/><stop stop-opacity="1" stop-color="rgb(2.488708%, 57.965088%, 62.086487%)" offset="0.496094"/><stop stop-opacity="1" stop-color="rgb(2.339172%, 57.781982%, 62.408447%)" offset="0.527344"/><stop stop-opacity="1" stop-color="rgb(2.200317%, 57.609558%, 62.709045%)" offset="0.554688"/><stop stop-opacity="1" stop-color="rgb(2.070618%, 57.450867%, 62.988281%)" offset="0.582031"/><stop stop-opacity="1" stop-color="rgb(1.951599%, 57.302856%, 63.246155%)" offset="0.605469"/><stop stop-opacity="1" stop-color="rgb(1.841736%, 57.168579%, 63.48114%)" offset="0.628906"/><stop stop-opacity="1" stop-color="rgb(1.742554%, 57.044983%, 63.696289%)" offset="0.648438"/><stop stop-opacity="1" stop-color="rgb(1.641846%, 56.922913%, 63.909912%)" offset="0.667969"/><stop stop-opacity="1" stop-color="rgb(1.542664%, 56.800842%, 64.125061%)" offset="0.6875"/><stop stop-opacity="1" stop-color="rgb(1.403809%, 56.628418%, 64.424133%)" offset="0.707031"/><stop stop-opacity="1" stop-color="rgb(1.234436%, 56.419373%, 64.788818%)" offset="0.742188"/><stop stop-opacity="1" stop-color="rgb(1.0849%, 56.236267%, 65.110779%)" offset="0.773438"/><stop stop-opacity="1" stop-color="rgb(0.9552%, 56.07605%, 65.390015%)" offset="0.800781"/><stop stop-opacity="1" stop-color="rgb(0.845337%, 55.941772%, 65.626526%)" offset="0.824219"/><stop stop-opacity="1" stop-color="rgb(0.746155%, 55.818176%, 65.840149%)" offset="0.84375"/><stop stop-opacity="1" stop-color="rgb(0.616455%, 55.659485%, 66.119385%)" offset="0.863281"/><stop stop-opacity="1" stop-color="rgb(0.4776%, 55.487061%, 66.419983%)" offset="0.894531"/><stop stop-opacity="1" stop-color="rgb(0.367737%, 55.352783%, 66.654968%)" offset="0.917969"/><stop stop-opacity="1" stop-color="rgb(0.238037%, 55.192566%, 66.934204%)" offset="0.9375"/><stop stop-opacity="1" stop-color="rgb(0.0793457%, 54.997253%, 67.277527%)" offset="0.96875"/><stop stop-opacity="1" stop-color="rgb(0%, 54.899597%, 67.449951%)" offset="1"/></radialGradient><clipPath id="ecd7f235e2"><rect x="0" width="243" y="0" height="243"/></clipPath><clipPath id="8bccfb2535"><path d="M 38.957031 39.015625 L 203.875 39.015625 L 203.875 203.933594 L 38.957031 203.933594 Z M 38.957031 39.015625 " clip-rule="nonzero"/></clipPath></defs><g clip-path="url(#433cbbe11f)"><g clip-path="url(#5382200f89)"><g transform="matrix(1, 0, 0, 1, -0, -0.000000000000022163)"><g clip-path="url(#ecd7f235e2)"><g clip-path="url(#7dbc94be41)"><g clip-path="url(#cb992eaada)"><path fill="url(#afdbe9b655)" d="M 0 0.0585938 L 0 242.941406 L 242.761719 242.941406 L 242.761719 0.0585938 Z M 0 0.0585938 " fill-rule="nonzero"/></g></g></g></g></g></g><g clip-path="url(#8bccfb2535)"><path fill="#d0f4ee" d="M 109.394531 203.980469 L 104.515625 203.980469 C 101.875 203.980469 99.734375 201.847656 99.734375 199.199219 C 99.734375 184.839844 82.363281 177.644531 72.210938 187.796875 C 70.34375 189.664062 67.3125 189.664062 65.445312 187.796875 L 55.140625 177.5 C 53.273438 175.632812 53.273438 172.59375 55.140625 170.730469 C 65.285156 160.585938 58.089844 143.207031 43.738281 143.207031 C 41.097656 143.207031 38.957031 141.0625 38.957031 138.421875 L 38.957031 133.542969 L 56.214844 133.542969 C 56.25 137.609375 57.585938 141.195312 59.515625 143.445312 C 61.113281 145.308594 63.128906 146.320312 65.253906 146.320312 C 67.382812 146.320312 69.394531 145.308594 70.996094 143.445312 C 72.925781 141.195312 74.257812 137.609375 74.292969 133.542969 L 83.269531 133.542969 C 84.429688 147.402344 95.53125 158.515625 109.394531 159.679688 L 109.394531 171.203125 C 109.394531 172.53125 110.472656 173.609375 111.800781 173.609375 C 111.910156 173.609375 112.019531 173.601562 112.125 173.585938 L 112.128906 173.585938 C 112.746094 173.503906 113.382812 173.457031 114.035156 173.457031 C 116.433594 173.457031 118.621094 174.042969 120.199219 175.035156 C 121.320312 175.742188 122.167969 176.613281 122.167969 177.6875 C 122.167969 178.761719 121.320312 179.632812 120.199219 180.339844 C 118.621094 181.332031 116.433594 181.917969 114.035156 181.917969 C 113.382812 181.917969 112.746094 181.875 112.128906 181.789062 L 112.125 181.789062 C 112.019531 181.773438 111.910156 181.765625 111.800781 181.765625 C 110.472656 181.765625 109.394531 182.84375 109.394531 184.171875 Z M 114.207031 159.679688 C 128.160156 158.511719 139.328125 147.253906 140.363281 133.261719 L 151.769531 133.261719 C 151.730469 131.554688 151.710938 129.390625 151.710938 128.910156 C 151.710938 123.105469 154.691406 118.371094 158.34375 118.371094 C 162 118.371094 164.980469 123.105469 164.980469 128.910156 C 164.980469 129.390625 164.960938 131.554688 164.917969 133.261719 L 184.644531 133.261719 L 184.644531 138.421875 C 184.644531 141.0625 182.507812 143.207031 179.859375 143.207031 C 165.515625 143.207031 158.316406 160.585938 168.460938 170.730469 C 170.328125 172.59375 170.328125 175.632812 168.460938 177.5 L 158.160156 187.796875 C 156.292969 189.664062 153.257812 189.664062 151.390625 187.796875 C 141.246094 177.65625 123.867188 184.855469 123.867188 199.199219 C 123.867188 201.847656 121.722656 203.980469 119.082031 203.980469 L 114.207031 203.980469 L 114.207031 186.726562 C 118.269531 186.691406 121.851562 185.355469 124.101562 183.429688 C 125.964844 181.828125 126.976562 179.816406 126.976562 177.6875 C 126.976562 175.5625 125.964844 173.546875 124.101562 171.949219 C 121.851562 170.019531 118.269531 168.683594 114.207031 168.648438 Z M 38.957031 128.734375 L 38.957031 123.855469 C 38.957031 121.214844 41.097656 119.070312 43.738281 119.070312 C 58.089844 119.070312 65.285156 101.691406 55.140625 91.546875 C 53.273438 89.683594 53.273438 86.652344 55.140625 84.785156 L 65.445312 74.480469 C 67.3125 72.613281 70.34375 72.613281 72.210938 74.480469 C 82.351562 84.621094 99.734375 77.429688 99.734375 63.078125 C 99.734375 60.4375 101.875 58.296875 104.515625 58.296875 L 109.675781 58.296875 L 109.675781 77.964844 C 109.636719 77.964844 109.601562 77.960938 109.566406 77.960938 C 103.757812 77.960938 99.027344 80.941406 99.027344 84.597656 C 99.027344 88.25 103.757812 91.234375 109.566406 91.234375 C 109.601562 91.234375 109.636719 91.234375 109.675781 91.234375 L 109.675781 102.585938 C 95.683594 103.621094 84.441406 114.78125 83.269531 128.734375 L 71.738281 128.734375 C 70.410156 128.734375 69.332031 129.8125 69.332031 131.140625 C 69.332031 131.25 69.339844 131.359375 69.355469 131.464844 L 69.355469 131.46875 C 69.441406 132.085938 69.484375 132.722656 69.484375 133.378906 C 69.484375 135.777344 68.898438 137.964844 67.90625 139.542969 C 67.199219 140.664062 66.328125 141.511719 65.253906 141.511719 C 64.179688 141.511719 63.308594 140.664062 62.601562 139.542969 C 61.609375 137.964844 61.027344 135.777344 61.027344 133.378906 C 61.027344 132.722656 61.070312 132.085938 61.152344 131.46875 L 61.15625 131.464844 C 61.167969 131.359375 61.175781 131.25 61.175781 131.140625 C 61.175781 129.8125 60.097656 128.734375 58.769531 128.734375 Z M 133.203125 83.304688 L 133.203125 71.867188 C 131.773438 71.925781 129.421875 71.953125 128.84375 71.953125 C 123.039062 71.953125 118.304688 68.972656 118.304688 65.320312 C 118.304688 61.664062 123.039062 58.683594 128.84375 58.683594 C 129.421875 58.683594 131.773438 58.714844 133.203125 58.769531 L 133.203125 39.015625 L 138.363281 39.015625 C 141.003906 39.015625 143.144531 41.160156 143.144531 43.800781 C 143.144531 58.152344 160.523438 65.34375 170.667969 55.199219 C 172.535156 53.332031 175.574219 53.332031 177.441406 55.199219 L 187.738281 65.507812 C 189.605469 67.375 189.605469 70.402344 187.738281 72.269531 C 177.59375 82.414062 184.796875 99.792969 199.136719 99.792969 C 201.789062 99.792969 203.921875 101.933594 203.921875 104.578125 L 203.921875 109.734375 L 184.257812 109.734375 C 184.257812 109.699219 184.257812 109.664062 184.257812 109.628906 C 184.257812 103.828125 181.277344 99.089844 177.625 99.089844 C 173.96875 99.089844 170.988281 103.828125 170.988281 109.628906 C 170.988281 109.664062 170.988281 109.699219 170.988281 109.734375 L 159.640625 109.734375 C 158.597656 95.648438 147.285156 84.34375 133.203125 83.304688 Z M 111.804688 150.328125 C 101.234375 150.328125 92.617188 141.707031 92.617188 131.144531 C 92.617188 120.574219 101.234375 111.957031 111.804688 111.957031 C 122.367188 111.957031 130.988281 120.574219 130.988281 131.144531 C 130.988281 141.707031 122.367188 150.328125 111.804688 150.328125 Z M 111.804688 150.328125 " fill-opacity="1" fill-rule="evenodd"/></g></svg>